<svg width="400" height="325" viewBox="0 0 400 325" fill="none" xmlns="http://www.w3.org/2000/svg">
<g clip-path="url(#clip0_1001_1440)">
<path d="M56.5377 125.327C53.6909 76.4959 82.5211 32.3446 121.047 17.9899C145.796 8.76675 177.62 11.6871 200.258 25.1436C234.487 45.4912 222.029 74.6628 253.858 92.9147C285.766 111.214 310.079 88.6551 347.303 106.387C386.979 125.285 396.838 168.769 398.056 174.578C407.426 219.229 382.21 266.594 338.29 290.335C276.196 323.898 194.328 300.719 170.377 265.076C157.089 245.301 164.589 226.093 143.338 210.352C123.463 195.635 104.791 203.472 87.369 190.146C75.9661 181.427 59.8572 164.888 56.5377 125.322V125.327Z" fill="#FCF9F5"/>
<path d="M266.686 0H164.153C154.936 0 147.465 7.47143 147.465 16.6879V206.35C147.465 215.567 154.936 223.038 164.153 223.038H266.686C275.903 223.038 283.374 215.567 283.374 206.35V16.6879C283.374 7.47143 275.903 0 266.686 0Z" fill="#D8CBB8"/>
<path d="M263.847 3.39453H249.874C248.383 3.39453 246.97 4.06026 246.021 5.20577L244.184 7.42611C242.622 9.31172 240.26 10.4052 237.761 10.4052H194.522C192.339 10.4052 190.249 9.56835 188.705 8.08068L185.31 4.80038C184.376 3.90034 183.13 3.39453 181.832 3.39453H166.996C157.907 3.39453 150.539 10.7622 150.539 19.8518V203.515C150.539 212.605 157.907 219.973 166.996 219.973H263.847C272.937 219.973 280.304 212.605 280.312 204.992V21.3284C280.304 10.7659 272.933 3.39825 263.847 3.39825V3.39453Z" fill="black"/>
<path d="M276.453 39.5938H154.609V175.392H276.453V39.5938Z" fill="white"/>
<path d="M274.034 186.075L271.955 183.542C271.844 183.423 271.658 183.423 271.546 183.542L269.467 185.737C269.285 185.926 268.973 185.796 268.973 185.525V179.165C268.973 178.834 269.252 178.562 269.594 178.562H273.912C274.254 178.562 274.533 178.83 274.533 179.165V185.863C274.533 186.131 274.22 186.265 274.038 186.075H274.034Z" fill="#D8CBB8" stroke="black" stroke-width="0.238027" stroke-miterlimit="10"/>
<path d="M162.535 185.903C162.23 185.903 161.94 185.787 161.724 185.572L159.136 183.002C158.113 181.99 158.105 180.342 159.117 179.323C160.024 178.408 161.467 178.293 162.505 179.059C163.658 178.2 165.287 178.438 166.146 179.587C166.916 180.621 166.816 182.064 165.904 182.979L163.338 185.568C163.126 185.784 162.832 185.903 162.531 185.906L162.535 185.903Z" fill="#F99100"/>
<path d="M245.257 193.203H158.355V196.833H245.257V193.203Z" fill="#D8CBB8"/>
<path d="M196.588 199.898H158.355V203.528H196.588V199.898Z" fill="#D8CBB8"/>
<path d="M197.948 23.707H168.566V27.3369H197.948V23.707Z" fill="#D8CBB8"/>
<path d="M276.338 23.707H246.957V27.3369H276.338V23.707Z" fill="#D8CBB8"/>
<path d="M188.873 29.1562H168.566V32.7862H188.873V29.1562Z" fill="#D8CBB8"/>
<path d="M160.061 32.7818C162.567 32.7818 164.598 30.7503 164.598 28.2444C164.598 25.7385 162.567 23.707 160.061 23.707C157.555 23.707 155.523 25.7385 155.523 28.2444C155.523 30.7503 157.555 32.7818 160.061 32.7818Z" fill="#D8CBB8"/>
<path d="M181.555 181.914L183.712 182.822L184.504 185.429L185.754 184.068L187.94 185.801L189.384 178.738L181.555 181.914Z" fill="white" stroke="black" stroke-width="0.282657" stroke-linecap="round" stroke-linejoin="round"/>
<path d="M183.715 182.821L187.683 180.438L185.076 183.502L185.757 184.067" fill="white"/>
<path d="M183.715 182.821L187.683 180.438L185.076 183.502L185.757 184.067" stroke="black" stroke-width="0.282657" stroke-linecap="round" stroke-linejoin="round"/>
<path d="M177.245 182.199C177.245 180.35 175.746 178.852 173.898 178.852C172.05 178.852 170.551 180.35 170.551 182.199C170.551 183.939 171.882 185.371 173.582 185.531L177.245 185.546L176.263 184.564C176.87 183.958 177.245 183.121 177.245 182.199Z" fill="white" stroke="black" stroke-width="0.282657" stroke-linecap="round" stroke-linejoin="round"/>
<path d="M238.052 8.17129C239.149 8.17129 240.038 7.28211 240.038 6.18525C240.038 5.0884 239.149 4.19922 238.052 4.19922C236.956 4.19922 236.066 5.0884 236.066 6.18525C236.066 7.28211 236.956 8.17129 238.052 8.17129Z" fill="black"/>
<path d="M232.212 5.10547H193.414V7.26259H232.212V5.10547Z" fill="black"/>
<path d="M247.676 75.4595C247.676 75.4595 251.064 71.2802 247.336 66.533C247.336 66.533 249.71 64.839 249.596 63.2566C249.482 61.6742 245.754 62.1256 245.754 62.1256C245.754 62.1256 243.38 48.117 227.678 55.6868C227.678 55.6868 230.614 50.0368 227.452 50.6023C224.29 51.1678 221.69 56.8154 221.804 58.9633C221.804 58.9633 213.783 56.8178 212.88 58.7375C211.977 60.6573 215.365 61.8999 215.365 61.8999C215.365 61.8999 208.361 63.9337 210.732 71.955C210.732 71.955 207.344 78.9593 217.171 77.3769C227 75.7945 247.674 75.4571 247.674 75.4571L247.676 75.4595Z" fill="#FFBF66"/>
<path d="M185.371 110.653L181.86 111.55C175.243 113.242 171.25 119.978 172.942 126.595L182.616 164.438C184.308 171.056 191.044 175.049 197.661 173.357L201.171 172.46C207.788 170.768 211.781 164.032 210.09 157.415L200.415 119.571C198.724 112.954 191.988 108.961 185.371 110.653Z" fill="#FAE6C9"/>
<path d="M241.611 90.7194C241.953 91.0069 242.411 91.3039 242.815 91.1114C243.193 90.9309 243.276 90.4343 243.264 90.0137C243.229 88.8709 242.834 87.7447 242.152 86.8276C243.193 87.7495 244.272 88.6975 245.595 89.1204C246.919 89.5433 248.56 89.3057 249.385 88.1843C250.212 87.0604 249.922 85.3616 248.952 84.3566C247.983 83.3516 246.503 82.969 245.11 83.0546C243.138 83.1734 241.269 84.2022 240.033 85.7299C239.567 86.3073 238.726 87.3598 239.004 88.1391C239.342 89.0776 240.865 90.0898 241.606 90.717L241.611 90.7194Z" fill="#FFBF66"/>
<path d="M274.111 118.055L268.24 150.018L267.699 152.964L266.15 161.404L263.548 175.562H181.328L183.279 166.37L190.868 130.573L194.534 113.277L194.797 112.036L195.365 109.354L195.696 107.8L197.444 107.403L201.745 106.424L205.8 105.502L206.504 105.341L209.077 104.756H209.082L209.348 104.695L213.667 103.711H247.674C247.674 103.711 251.837 104.801 257.252 107.17C259.808 108.289 262.647 109.691 265.456 111.402C267.561 112.683 269.652 114.134 271.6 115.764C272.189 116.258 272.764 116.769 273.325 117.294C273.591 117.546 273.852 117.798 274.109 118.055H274.111Z" fill="#F99100"/>
<path d="M267.699 152.962L266.15 161.401L263.548 175.56H181.328L183.279 166.367L190.868 130.571L194.534 113.274L194.797 112.034L195.365 109.351L195.696 107.798L197.444 107.401L201.745 106.422L205.8 105.5L205.679 105.968L204.334 111.131L203.106 115.845L201.265 122.901L200.79 124.724L201.735 124.745L216.495 125.059L224.15 125.22L243.378 125.629C243.378 125.629 250.385 109.672 257.249 107.173C259.806 108.292 262.645 109.694 265.453 111.404C263.206 112.16 260.545 113.64 258.09 116.014C258.071 116.03 258.055 116.049 258.036 116.066C256.591 117.472 255.22 119.188 254.049 121.245C253.726 121.816 253.419 122.407 253.129 123.027C251.21 127.135 250.074 132.42 250.499 139.077C250.673 141.8 251.264 144.021 252.165 145.822C253.847 149.187 256.598 151.087 259.713 152.076C261.718 152.715 263.873 152.974 265.983 152.998C266.561 153.005 267.133 152.998 267.699 152.972V152.962Z" fill="black"/>
<path d="M238.509 141.701C238.587 140.998 239.226 140.487 239.932 140.534C242.187 140.686 248.35 141.931 257.616 150.138C269.479 160.644 266.203 163.695 262.701 162.792C259.199 161.889 250.046 157.031 246.207 152.963C242.845 149.404 238.179 144.687 238.509 141.701Z" fill="black"/>
<path d="M182.769 108.713C182.769 108.713 169.72 104.493 160.908 110.369C152.095 116.244 159.325 123.814 169.606 124.717C179.887 125.62 182.769 108.713 182.769 108.713Z" fill="#363636"/>
<path d="M247.675 103.703C247.675 103.703 240.331 112.629 222.369 113.418C204.406 114.209 208.02 105.057 208.02 105.057C213.706 103.582 216.645 99.8751 218.163 96.3373C219.9 92.2839 219.772 88.4491 219.772 88.4491L226.79 85.4079L240.107 79.6367C238.188 92.0653 247.677 103.7 247.677 103.7L247.675 103.703Z" fill="#FAE6C9"/>
<path d="M237.846 84.9492C237.846 84.9492 229.711 104.608 222.369 101.897C219.865 100.973 218.661 98.801 218.164 96.3395C219.901 92.2862 219.773 88.4514 219.773 88.4514L226.791 85.4102L237.849 84.9492H237.846Z" fill="black"/>
<path d="M248.861 75.0242C247.697 73.4014 245.815 72.565 243.824 72.5745C242.182 64.1138 236.123 59.3595 228.708 60.0889C220.682 60.8777 214.11 67.787 215.075 77.5973C216.039 87.4076 217.809 95.2625 225.835 94.4761C230.331 94.0341 235.833 90.9739 239.635 86.6449C242.222 86.4477 245.09 85.4593 246.806 84.231C249.963 81.9691 250.883 77.8468 248.861 75.0242Z" fill="#FAE6C9"/>
<path d="M247.457 80.4288C246.476 78.7847 244.986 77.4137 243.266 76.5703L243.517 76.0547C245.337 76.9457 246.91 78.395 247.949 80.1342L247.457 80.4288Z" fill="black"/>
<path d="M245.937 78.2577L245.102 80.8516L245.649 81.0279L246.485 78.434L245.937 78.2577Z" fill="black"/>
<path d="M229.364 76.7191C229.865 76.6698 230.216 76.0624 230.148 75.3625C230.079 74.6625 229.616 74.135 229.115 74.1842C228.614 74.2335 228.263 74.8409 228.332 75.5408C228.4 76.2408 228.863 76.7683 229.364 76.7191Z" fill="black"/>
<path d="M219.895 77.3402C220.397 77.2909 220.748 76.6835 220.679 75.9836C220.61 75.2836 220.148 74.7561 219.646 74.8053C219.145 74.8546 218.794 75.462 218.863 76.1619C218.932 76.8619 219.394 77.3894 219.895 77.3402Z" fill="black"/>
<path d="M220.651 82.5634L220.395 82.0502C221.863 81.3184 223.003 80.0045 223.524 78.4459C224.044 76.8873 223.918 75.1528 223.184 73.6845L223.697 73.4279C224.5 75.0317 224.636 76.9253 224.07 78.6265C223.502 80.3277 222.257 81.7627 220.654 82.5634H220.651ZM224.833 86.5075L224.757 85.9397C227.069 85.6284 229.169 83.8583 229.865 81.6297L230.414 81.8007C229.644 84.2717 227.401 86.1654 224.835 86.5099L224.833 86.5075ZM234.945 91.1454L234.622 90.6702C236.42 89.4489 238.036 88.0305 239.421 86.4552L239.5 86.3673L239.616 86.3578C242.111 86.1677 244.933 85.2197 246.639 83.9961C248.108 82.9436 249.122 81.4444 249.495 79.7741C249.866 78.1156 249.557 76.4881 248.628 75.1908C247.566 73.7083 245.829 72.86 243.857 72.86C243.845 72.86 243.836 72.86 243.824 72.86H243.586L243.541 72.6272C241.956 64.4539 236.145 59.645 228.734 60.372L228.677 59.8018C232.424 59.4335 235.86 60.4219 238.609 62.6601C241.341 64.884 243.22 68.2079 244.057 72.2874C246.133 72.3445 247.958 73.2711 249.091 74.8558C250.118 76.2885 250.46 78.08 250.054 79.9C249.65 81.7081 248.554 83.3285 246.972 84.4642C245.214 85.7234 242.334 86.7047 239.773 86.9209C238.373 88.4986 236.748 89.9194 234.942 91.1454H234.945Z" fill="black"/>
<path d="M224.771 94.814C223.592 94.814 222.523 94.612 221.582 94.2105L221.808 93.683C222.946 94.1677 224.293 94.3364 225.811 94.1868C228.548 93.9183 231.677 92.6685 234.626 90.668L234.949 91.1432C231.925 93.196 228.698 94.479 225.868 94.7594C225.493 94.795 225.129 94.814 224.773 94.814H224.771Z" fill="black"/>
<path d="M247.646 175.559H215.991C213.853 172.133 211.841 168.277 209.93 164.119C206.214 156.026 202.879 146.801 199.738 137.406C199.02 135.265 198.314 133.115 197.616 130.97C196.181 126.557 197.21 121.841 200.08 118.46C200.933 117.455 201.95 116.567 203.111 115.84C203.244 115.756 203.38 115.676 203.518 115.595C205.575 114.409 207.821 113.844 210.037 113.844C214.062 113.844 217.99 115.706 220.511 119.078C220.819 119.491 221.107 119.926 221.371 120.385L224.16 125.215L235.961 145.653L246.76 164.359C248.808 167.904 249.005 172.012 247.651 175.559H247.646Z" fill="#FAE6C9"/>
<path d="M276.26 119.622V139.452L268.243 150.016L265.986 152.988L263.546 156.203L259.469 161.575L248.858 175.557H218.051C217.697 172.107 218.6 168.52 220.862 165.54L235.954 145.653L235.968 145.637L238.506 142.291L239.841 140.531L253.132 123.018L254.75 120.886C259.167 115.065 267.205 113.614 273.33 117.292C273.77 117.555 274.2 117.845 274.618 118.164C275.212 118.615 275.761 119.102 276.262 119.622H276.26Z" fill="#FAE6C9"/>
<path d="M191.203 113.786C205.679 111.778 217.041 107.469 216.582 104.162C216.124 100.856 204.017 99.8037 189.542 101.812C175.067 103.821 163.704 108.13 164.163 111.436C164.622 114.743 176.728 115.795 191.203 113.786Z" fill="#F2F2F2"/>
<path d="M172.77 109.354C172.77 109.354 168.757 109.831 169.268 105.852C169.833 101.447 173.221 98.8473 173.221 98.8473C172.725 95.7633 177.876 85.0216 190.846 85.7416C198.981 86.193 201.692 93.0856 201.692 93.0856C201.692 93.0856 207.34 93.1997 209.713 98.0561C212.225 103.198 209.036 105.174 207.905 105.626C206.777 106.077 172.77 109.354 172.77 109.354Z" fill="#D5C028"/>
<path d="M220.643 118.769C221.498 116.806 220.524 114.527 218.516 113.789C214.867 112.444 209.203 110.08 207.829 107.941C205.76 104.722 204.405 98.1691 201.806 98.055C199.188 97.941 195.479 100.089 197.964 109.804C197.964 109.804 172.77 104.382 166.445 116.697C160.118 129.011 175.032 130.142 185.764 129.914C196.496 129.688 193.108 136.241 196.27 137.935C199.079 139.439 216.145 129.094 220.643 118.769Z" fill="#363636"/>
<path d="M276.258 119.069V144.537C271.708 153.166 267.45 159.515 266.15 161.402C265.901 161.763 265.761 161.96 265.749 161.979C265.749 161.974 265.754 161.969 265.756 161.962C265.768 161.938 265.78 161.915 265.789 161.889C265.789 161.884 265.792 161.879 265.794 161.874C265.804 161.851 265.815 161.824 265.823 161.796C265.827 161.786 265.83 161.775 265.834 161.763C265.842 161.741 265.849 161.72 265.856 161.699C265.861 161.687 265.863 161.675 265.868 161.661C265.872 161.641 265.877 161.625 265.882 161.606C265.887 161.584 265.894 161.563 265.896 161.542C265.903 161.511 265.908 161.48 265.913 161.449C265.918 161.425 265.92 161.402 265.922 161.378C265.925 161.356 265.927 161.337 265.929 161.316C265.932 161.283 265.934 161.247 265.937 161.211C265.937 161.169 265.939 161.126 265.939 161.083C265.939 160 265.278 158.405 263.544 156.201C262.807 155.264 261.876 154.217 260.719 153.052C260.645 152.979 260.569 152.9 260.491 152.824C260.241 152.575 259.98 152.321 259.709 152.062C259.07 151.449 258.372 150.807 257.614 150.135C255.653 148.4 253.834 146.975 252.161 145.808C245.917 141.451 241.709 140.65 239.929 140.531C239.899 140.531 239.868 140.529 239.837 140.529C239.794 140.529 239.751 140.529 239.708 140.536C239.687 140.536 239.663 140.541 239.642 140.543C239.606 140.548 239.568 140.555 239.533 140.564L239.478 140.579C239.438 140.591 239.397 140.602 239.359 140.619C239.34 140.626 239.321 140.633 239.302 140.643C239.283 140.65 239.264 140.659 239.248 140.669C239.231 140.676 239.212 140.686 239.198 140.695C239.186 140.7 239.174 140.707 239.162 140.714C239.145 140.724 239.129 140.733 239.112 140.743C239.069 140.769 239.029 140.797 238.991 140.831C238.977 140.84 238.965 140.852 238.951 140.864C238.936 140.876 238.924 140.888 238.91 140.899L245.651 132.144L254.047 121.238L258.034 116.059L258.063 116.018C258.063 116.018 258.07 116.014 258.086 116.004C258.528 115.767 264.818 112.526 271.594 115.757C272.425 116.154 273.266 116.648 274.103 117.259C274.887 117.831 275.604 118.435 276.248 119.067L276.258 119.069Z" fill="#F99100"/>
<path d="M220.561 64.2732C220.561 64.2732 218.188 68.1151 223.838 69.3577C229.488 70.6003 235.812 70.0348 235.812 70.0348C235.812 70.0348 233.667 78.0561 238.072 76.8134C242.477 75.5708 241.234 70.9377 246.319 72.6341C246.319 72.6341 241.348 59.4167 232.536 59.3027C223.724 59.1886 220.561 64.2732 220.561 64.2732Z" fill="#FFBF66"/>
<path d="M221.352 64.0482C221.352 64.0482 217.127 69.3347 214.913 69.9239C212.699 70.5108 220.561 60.3203 227.113 60.3203C233.666 60.3203 221.352 64.0482 221.352 64.0482Z" fill="#FFBF66"/>
<path d="M242.704 156.576C242.628 156.576 242.554 156.538 242.511 156.472L235.618 145.514C235.552 145.409 235.583 145.269 235.69 145.203C235.794 145.136 235.934 145.167 236.001 145.274L242.894 156.232C242.96 156.336 242.929 156.477 242.822 156.543C242.784 156.567 242.744 156.579 242.701 156.579L242.704 156.576ZM238.862 141.099C238.814 141.099 238.764 141.083 238.724 141.052C238.626 140.976 238.607 140.833 238.683 140.736L252.918 122.434C252.994 122.337 253.136 122.318 253.234 122.394C253.331 122.47 253.35 122.612 253.274 122.71L239.04 141.012C238.995 141.069 238.928 141.099 238.862 141.099ZM181.577 99.373C181.549 99.373 181.518 99.3683 181.49 99.3564C178.895 98.2634 175.885 98.1803 173.233 99.1283C173.117 99.1711 172.986 99.1093 172.943 98.9905C172.9 98.8741 172.962 98.7434 173.081 98.7006C175.837 97.717 178.966 97.8025 181.665 98.9382C181.779 98.9857 181.834 99.1188 181.787 99.2352C181.751 99.3207 181.665 99.373 181.577 99.373ZM174.956 101.927C174.851 101.927 174.756 101.854 174.735 101.747C174.711 101.625 174.789 101.504 174.911 101.48C176.887 101.077 178.909 100.967 180.919 101.153C181.043 101.164 181.136 101.274 181.124 101.397C181.112 101.521 181 101.611 180.879 101.602C178.914 101.421 176.935 101.528 175.001 101.922C174.987 101.925 174.97 101.927 174.956 101.927ZM184.288 92.478C184.229 92.478 184.167 92.4542 184.122 92.4067C183.319 91.5419 182.233 90.9693 181.064 90.7934C180.941 90.7744 180.855 90.6604 180.874 90.5368C180.893 90.4133 181.01 90.3278 181.131 90.3468C182.4 90.5392 183.578 91.1617 184.45 92.1002C184.536 92.1905 184.531 92.3354 184.438 92.4186C184.395 92.459 184.338 92.478 184.284 92.478H184.288ZM185.628 90.4703C185.583 90.4703 185.538 90.4561 185.498 90.4276C184.697 89.8597 183.825 89.4035 182.903 89.0685C182.787 89.0257 182.725 88.8951 182.768 88.7786C182.811 88.6622 182.941 88.6004 183.058 88.6432C184.018 88.9925 184.925 89.4677 185.759 90.0593C185.861 90.1306 185.885 90.2731 185.814 90.3753C185.769 90.4371 185.7 90.4703 185.628 90.4703ZM191.181 92.3283C191.105 92.3283 191.031 92.2903 190.989 92.219C189.606 89.9476 187.216 88.3177 184.597 87.8591C184.474 87.8378 184.393 87.7213 184.414 87.5978C184.436 87.4742 184.555 87.3935 184.676 87.4148C187.42 87.8948 189.927 89.6031 191.376 91.9838C191.44 92.0907 191.407 92.2285 191.3 92.295C191.264 92.3164 191.221 92.3283 191.183 92.3283H191.181ZM197.508 93.7824C197.42 93.7824 197.337 93.7301 197.299 93.6446C197.252 93.5305 197.304 93.3975 197.42 93.35C198.779 92.7797 200.271 92.5493 201.74 92.6871C201.863 92.699 201.956 92.8083 201.944 92.9342C201.932 93.0577 201.825 93.1504 201.697 93.1385C200.305 93.0078 198.886 93.2264 197.594 93.7681C197.565 93.78 197.534 93.7848 197.506 93.7848L197.508 93.7824ZM206.249 99.6534C206.154 99.6534 206.066 99.594 206.036 99.4989C205.515 97.9427 204.325 96.586 202.847 95.8685C202.735 95.8138 202.688 95.6784 202.742 95.5667C202.797 95.4551 202.933 95.4075 203.044 95.4622C204.653 96.2415 205.898 97.66 206.466 99.354C206.506 99.4728 206.442 99.6011 206.323 99.6391C206.299 99.6462 206.275 99.651 206.252 99.651L206.249 99.6534ZM187.881 84.3831C187.539 84.3831 187.194 84.3546 186.854 84.2833C185.804 84.0624 184.642 83.2973 184.419 82.0785C184.215 80.9641 184.83 79.7857 186.249 78.5763L186.458 78.3981C187.382 77.6164 188.335 76.8062 188.52 75.6895C188.703 74.5895 188.099 73.4015 186.726 72.1589C186.56 72.0092 186.391 71.8595 186.22 71.7098C185.265 70.8758 184.279 70.011 183.863 68.7921C183.16 66.7298 184.343 64.62 185.51 62.8071C185.576 62.7026 185.716 62.6717 185.821 62.7382C185.925 62.8047 185.956 62.9449 185.89 63.0495C184.78 64.7744 183.652 66.7726 184.291 68.6448C184.669 69.7496 185.609 70.5741 186.519 71.37C186.693 71.5221 186.864 71.6718 187.033 71.8239C188.527 73.1758 189.178 74.5015 188.969 75.7632C188.758 77.0414 187.693 77.9443 186.752 78.7426L186.546 78.9184C185.26 80.0161 184.695 81.052 184.868 81.9977C185.053 83.0098 186.049 83.6513 186.952 83.8414C187.974 84.0552 189.078 83.8438 190.055 83.6585C190.178 83.6347 190.295 83.7155 190.319 83.839C190.342 83.9626 190.262 84.079 190.138 84.1028C189.432 84.2382 188.663 84.3831 187.886 84.3831H187.881Z" fill="black"/>
<path d="M189.662 78.5217C189.598 78.5217 189.534 78.4932 189.489 78.4409C189.408 78.3459 189.422 78.2033 189.52 78.1225C191.147 76.773 191.471 74.1 190.211 72.4036C189.883 71.9617 189.477 71.591 189.047 71.2014C188.581 70.7785 188.101 70.3389 187.733 69.8043C186.785 68.4215 186.759 66.4732 187.669 65.0643C187.738 64.9598 187.876 64.9289 187.983 64.9978C188.087 65.0667 188.118 65.2045 188.049 65.3114C187.234 66.5707 187.258 68.3146 188.106 69.5501C188.444 70.0443 188.885 70.4435 189.351 70.8688C189.779 71.2584 190.218 71.6599 190.575 72.1375C191.969 74.0193 191.613 76.9797 189.81 78.4742C189.767 78.5098 189.717 78.5264 189.665 78.5264L189.662 78.5217Z" fill="black"/>
<path d="M182.465 45.0664H161.11C159.66 45.0664 158.484 46.2419 158.484 47.6918V50.9136C158.484 52.3636 159.66 53.5391 161.11 53.5391H182.465C183.915 53.5391 185.09 52.3636 185.09 50.9136V47.6918C185.09 46.2419 183.915 45.0664 182.465 45.0664Z" fill="#F99100"/>
<path d="M166.672 47.0234H168.026V50.0837H169.656V51.1433H166.672V47.0234ZM170.243 47.0234H171.597V51.1433H170.243V47.0234ZM172.068 47.0234H173.458L174.187 50.0243H174.299L175.035 47.0234H176.406L175.311 51.1433H173.163L172.068 47.0234ZM176.874 47.0234H180.364V48.0831H178.205V48.5536H180.364V49.6132H178.205V50.0837H180.364V51.1433H176.874V47.0234Z" fill="white"/>
<path d="M163.226 50.3783C163.819 50.3783 164.3 49.8975 164.3 49.3044C164.3 48.7113 163.819 48.2305 163.226 48.2305C162.633 48.2305 162.152 48.7113 162.152 49.3044C162.152 49.8975 162.633 50.3783 163.226 50.3783Z" fill="white"/>
<path d="M184.07 162.225C184.053 162.225 184.039 162.225 184.022 162.22C183.901 162.194 183.823 162.073 183.849 161.951L190.627 130.544C190.654 130.423 190.772 130.344 190.896 130.37C191.017 130.396 191.095 130.518 191.069 130.639L184.291 162.046C184.267 162.153 184.174 162.225 184.07 162.225ZM210.766 109.26L210.545 108.73C214.382 107.138 216.48 105.485 216.302 104.194C216.157 103.144 214.484 102.26 211.593 101.712L211.7 101.148C214.943 101.766 216.684 102.764 216.872 104.116C217.155 106.157 213.707 108.041 210.766 109.26Z" fill="black"/>
<path d="M147.292 63.625H100.285C96.9456 63.625 94.2344 66.3363 94.2344 69.6798V82.0869C94.2344 85.4268 96.9456 88.138 100.285 88.138H132.449L150.736 94.3751L148.69 87.9707C151.357 87.3421 153.347 84.9433 153.343 82.0832V69.6761C153.343 66.3363 150.632 63.625 147.292 63.625Z" fill="#F99100"/>
<path d="M150.956 94.5952L132.427 88.2726H100.29C96.8759 88.2726 94.0977 85.4981 94.0977 82.0839V69.6768C94.0977 66.2626 96.8722 63.4844 100.286 63.4844H147.293C150.707 63.4844 153.485 66.2589 153.485 69.6731V82.0802C153.485 84.9142 151.596 87.354 148.87 88.0681L150.956 94.5952ZM100.286 63.7707C97.0284 63.7707 94.3803 66.4225 94.3803 69.6805V82.0876C94.3803 85.3456 97.0321 87.9937 100.29 87.9937H132.476L132.498 88.0011L150.517 94.1489L148.509 87.8672L148.658 87.8338C151.336 87.2015 153.203 84.8361 153.203 82.0839V69.6768C153.203 66.4188 150.551 63.7707 147.293 63.7707H100.286Z" fill="black"/>
<path d="M108.406 81.4529C107.885 81.4529 107.383 81.2484 107.015 80.8802L102.578 76.4432C100.826 74.6952 100.822 71.8612 102.57 70.1095C104.14 68.5363 106.624 68.3503 108.406 69.6743C110.396 68.2015 113.2 68.6181 114.673 70.6078C115.993 72.393 115.811 74.8774 114.237 76.4432L109.8 80.8802C109.432 81.2484 108.93 81.4566 108.409 81.4566L108.406 81.4529ZM120.716 74.963V72.3001C121.802 72.1438 122.836 71.705 123.584 70.7083H125.834V79.757H122.267V74.5985C121.735 74.8179 121.196 74.9332 120.716 74.9593V74.963ZM130.089 77.1313C130.914 77.1313 131.409 76.9379 131.409 76.38C131.409 75.8221 130.855 75.4874 130.051 75.4874C129.367 75.4874 128.683 75.6175 128.192 75.9672L127.623 75.6845L128.411 70.7083H134.421V73.267H130.531L130.401 73.9923C130.724 73.9402 131.074 73.9142 131.435 73.9142C133.425 73.9142 134.875 74.9593 134.875 76.7854C134.875 78.6115 133.35 79.9913 130.65 79.9913C129.188 79.9913 127.47 79.5524 126.566 78.5706L127.935 76.3986C128.415 76.8114 129.371 77.135 130.092 77.135L130.089 77.1313ZM139.368 70.4479C141.525 70.4479 143.102 71.493 143.102 73.4604C143.102 74.8031 142.365 75.7217 140.647 77.0941H143.284V79.7421H135.269V79.3553L137.776 76.7445C139.186 75.2828 139.662 74.7287 139.662 74.2229C139.662 73.7171 139.301 73.3823 138.743 73.3823C138.163 73.3823 137.746 73.7691 137.646 74.4311L135.02 73.6427C135.277 71.731 136.816 70.4516 139.364 70.4479H139.368Z" fill="white"/>
<path d="M329.376 33.9844H289.407C286.065 33.9844 283.355 36.6935 283.355 40.0355V52.4389C283.355 55.7808 286.065 58.49 289.407 58.49H329.376C332.718 58.49 335.428 55.7808 335.428 52.4389V40.0355C335.428 36.6935 332.718 33.9844 329.376 33.9844Z" fill="#F99100"/>
<path d="M329.381 58.632H289.407C285.993 58.632 283.215 55.8575 283.215 52.4433V40.0362C283.215 36.622 285.989 33.8438 289.404 33.8438H329.377C332.791 33.8438 335.57 36.6182 335.57 40.0324V52.4396C335.57 55.8538 332.795 58.632 329.381 58.632ZM289.407 34.1264C286.149 34.1264 283.501 36.7782 283.501 40.0362V52.4433C283.501 55.7013 286.153 58.3493 289.411 58.3493H329.385C332.643 58.3493 335.291 55.6976 335.291 52.4396V40.0324C335.291 36.7745 332.639 34.1264 329.381 34.1264H289.407Z" fill="black"/>
<path d="M313.166 41.2434C315.323 41.2434 316.9 42.2885 316.9 44.256C316.9 45.5986 316.164 46.5172 314.445 47.8896H317.082V50.5376H309.067V50.1508L311.574 47.54C312.984 46.0783 313.46 45.5242 313.46 45.0184C313.46 44.5126 313.099 44.1779 312.541 44.1779C311.961 44.1779 311.544 44.5647 311.444 45.2267L308.818 44.4382C309.075 42.5265 310.615 41.2472 313.162 41.2434H313.166ZM322.151 41.2434C324.799 41.2434 326.6 43.196 326.6 45.9854C326.6 48.8157 324.803 50.7794 322.155 50.7794C319.507 50.7794 317.722 48.8157 317.722 45.9854C317.722 43.2072 319.507 41.2397 322.155 41.2397L322.151 41.2434ZM322.166 47.566C322.903 47.566 323.278 46.9598 323.278 45.9891C323.278 45.0072 322.903 44.4122 322.166 44.4122C321.43 44.4122 321.054 45.0184 321.054 45.9891C321.054 46.9598 321.43 47.566 322.166 47.566ZM304.024 43.5865C303.663 43.1551 303.128 42.9022 302.566 42.9059H299.68L299.985 42.084C300.201 41.541 300.234 40.9422 300.086 40.3806C299.77 39.2537 298.743 38.4764 297.571 38.4727C297.322 38.4727 297.092 38.6214 296.991 38.8483L295.188 42.9059V51.1364H301.759C302.678 51.1364 303.463 50.4781 303.626 49.5781L304.433 45.1448C304.534 44.5907 304.385 44.0217 304.024 43.5902V43.5865Z" fill="white"/>
<path d="M295.193 42.9062H293.705C292.656 42.9062 291.808 43.7579 291.805 44.8067V49.24C291.805 50.2888 292.656 51.1368 293.705 51.1405H295.193V42.91V42.9062Z" fill="#363636"/>
<path d="M252.173 209.972C252.132 209.972 252.092 209.946 252.073 209.905L250.671 206.587C250.649 206.531 250.671 206.468 250.73 206.442C250.786 206.42 250.849 206.442 250.875 206.502L252.278 209.819C252.3 209.875 252.278 209.938 252.218 209.964C252.203 209.972 252.188 209.972 252.177 209.972H252.173ZM262.896 210.065C262.896 210.065 262.87 210.065 262.855 210.057C262.799 210.035 262.773 209.972 262.795 209.916L264.149 206.58C264.171 206.524 264.235 206.498 264.29 206.52C264.346 206.542 264.372 206.606 264.35 206.662L262.996 209.998C262.978 210.039 262.937 210.065 262.896 210.065ZM270.408 217.711C270.368 217.711 270.327 217.685 270.308 217.644C270.286 217.588 270.308 217.525 270.368 217.499L273.685 216.097C273.741 216.075 273.804 216.097 273.83 216.157C273.852 216.212 273.83 216.276 273.771 216.302L270.453 217.704C270.453 217.704 270.423 217.711 270.412 217.711H270.408ZM273.652 229.791C273.652 229.791 273.626 229.791 273.611 229.784L270.275 228.43C270.219 228.407 270.193 228.344 270.215 228.288C270.237 228.233 270.301 228.207 270.356 228.229L273.693 229.583C273.748 229.605 273.774 229.668 273.752 229.724C273.733 229.765 273.692 229.791 273.652 229.791ZM264.071 239.267C264.03 239.267 263.989 239.241 263.971 239.2L262.568 235.883C262.546 235.827 262.568 235.764 262.628 235.738C262.684 235.716 262.747 235.738 262.773 235.797L264.175 239.115C264.197 239.171 264.175 239.234 264.116 239.26C264.101 239.267 264.086 239.267 264.075 239.267H264.071ZM250.593 239.193C250.593 239.193 250.567 239.193 250.552 239.186C250.496 239.163 250.47 239.1 250.492 239.044L251.035 237.705C251.058 237.65 251.121 237.624 251.177 237.646C251.232 237.668 251.258 237.731 251.236 237.787L250.693 239.126C250.675 239.167 250.634 239.193 250.593 239.193Z" fill="black"/>
<path d="M251.132 237.853C251.132 237.853 251.106 237.853 251.091 237.845C251.035 237.823 251.009 237.76 251.032 237.704L251.842 235.707C251.865 235.651 251.928 235.625 251.984 235.647C252.04 235.67 252.066 235.733 252.043 235.789L251.232 237.786C251.214 237.827 251.173 237.853 251.132 237.853ZM241.109 229.611C241.068 229.611 241.027 229.585 241.008 229.544C240.986 229.488 241.008 229.425 241.068 229.399L242.727 228.7C242.783 228.678 242.846 228.7 242.872 228.759C242.894 228.815 242.872 228.878 242.812 228.904L241.154 229.604C241.154 229.604 241.124 229.611 241.113 229.611H241.109Z" fill="black"/>
<path d="M242.769 228.91C242.728 228.91 242.687 228.884 242.668 228.843C242.646 228.787 242.668 228.724 242.728 228.698L244.387 227.998C244.442 227.976 244.506 227.998 244.532 228.058C244.554 228.114 244.532 228.177 244.472 228.203L242.813 228.902C242.813 228.902 242.784 228.91 242.773 228.91H242.769ZM244.521 217.488C244.521 217.488 244.495 217.488 244.48 217.481L241.858 216.417C241.802 216.395 241.776 216.331 241.798 216.276C241.82 216.22 241.884 216.194 241.939 216.216L244.562 217.28C244.617 217.302 244.643 217.365 244.621 217.421C244.602 217.462 244.562 217.488 244.521 217.488ZM257.445 208.953C257.385 208.953 257.337 208.904 257.333 208.845L257.315 207.379C257.315 207.32 257.363 207.268 257.422 207.268C257.482 207.268 257.53 207.316 257.534 207.376L257.553 208.841C257.553 208.9 257.504 208.953 257.445 208.953ZM267.341 213.073C267.315 213.073 267.286 213.062 267.263 213.044C267.219 213.003 267.219 212.932 267.263 212.887L269.398 210.693C269.439 210.648 269.51 210.648 269.554 210.693C269.599 210.734 269.599 210.805 269.554 210.849L267.419 213.044C267.397 213.066 267.371 213.077 267.341 213.077V213.073ZM271.429 222.985C271.369 222.985 271.321 222.937 271.317 222.877C271.317 222.818 271.366 222.765 271.425 222.765L273.225 222.739C273.285 222.739 273.333 222.788 273.337 222.847C273.337 222.907 273.288 222.959 273.229 222.959L271.429 222.985ZM268.353 233.901C268.327 233.901 268.297 233.89 268.275 233.871L267.23 232.856C267.185 232.815 267.185 232.744 267.23 232.699C267.271 232.655 267.341 232.655 267.386 232.699L268.431 233.715C268.476 233.756 268.476 233.826 268.431 233.871C268.409 233.893 268.383 233.904 268.353 233.904V233.901ZM257.43 239.539C257.37 239.539 257.322 239.491 257.318 239.431L257.281 236.865C257.281 236.805 257.329 236.753 257.389 236.753C257.448 236.753 257.497 236.802 257.5 236.861L257.538 239.427C257.538 239.487 257.489 239.539 257.43 239.539ZM246.722 233.644C246.696 233.644 246.667 233.633 246.644 233.614C246.6 233.573 246.6 233.503 246.644 233.458L247.414 232.666C247.455 232.621 247.526 232.621 247.57 232.666C247.615 232.707 247.615 232.778 247.57 232.822L246.8 233.614C246.778 233.637 246.752 233.648 246.722 233.648V233.644ZM241.237 222.966C241.177 222.966 241.129 222.918 241.125 222.858C241.125 222.799 241.173 222.747 241.233 222.747L243.405 222.717C243.464 222.717 243.513 222.765 243.516 222.825C243.516 222.885 243.468 222.937 243.409 222.937L241.237 222.966ZM247.529 213.036C247.503 213.036 247.474 213.025 247.451 213.006L246.031 211.623C245.986 211.582 245.986 211.511 246.031 211.467C246.071 211.422 246.142 211.422 246.187 211.467L247.608 212.85C247.652 212.891 247.652 212.962 247.608 213.006C247.585 213.029 247.559 213.04 247.529 213.04V213.036ZM252.171 209.972C252.13 209.972 252.089 209.946 252.071 209.905L250.668 206.587C250.646 206.531 250.668 206.468 250.728 206.442C250.784 206.42 250.847 206.442 250.873 206.502L252.275 209.819C252.297 209.875 252.275 209.938 252.216 209.964C252.201 209.972 252.186 209.972 252.175 209.972H252.171ZM262.893 210.065C262.893 210.065 262.867 210.065 262.852 210.057C262.797 210.035 262.771 209.972 262.793 209.916L264.147 206.58C264.169 206.524 264.232 206.498 264.288 206.52C264.344 206.542 264.37 206.606 264.347 206.662L262.994 209.998C262.975 210.039 262.934 210.065 262.893 210.065ZM270.406 217.711C270.365 217.711 270.324 217.685 270.306 217.644C270.283 217.588 270.306 217.525 270.365 217.499L273.683 216.097C273.738 216.075 273.802 216.097 273.828 216.157C273.85 216.212 273.828 216.276 273.768 216.302L270.451 217.704C270.451 217.704 270.421 217.711 270.41 217.711H270.406ZM273.649 229.791C273.649 229.791 273.623 229.791 273.608 229.784L270.272 228.43C270.216 228.407 270.19 228.344 270.213 228.288C270.235 228.233 270.298 228.207 270.354 228.229L273.69 229.583C273.746 229.605 273.772 229.668 273.75 229.724C273.731 229.765 273.69 229.791 273.649 229.791ZM264.069 239.267C264.028 239.267 263.987 239.241 263.968 239.2L262.566 235.883C262.544 235.827 262.566 235.764 262.625 235.738C262.681 235.716 262.745 235.738 262.771 235.797L264.173 239.115C264.195 239.171 264.173 239.234 264.113 239.26C264.098 239.267 264.083 239.267 264.072 239.267H264.069ZM250.59 239.193C250.59 239.193 250.564 239.193 250.549 239.186C250.494 239.163 250.468 239.1 250.49 239.044L251.844 235.708C251.866 235.652 251.929 235.626 251.985 235.649C252.041 235.671 252.067 235.734 252.044 235.79L250.691 239.126C250.672 239.167 250.631 239.193 250.59 239.193Z" fill="black"/>
<path d="M241.109 229.612C241.068 229.612 241.027 229.586 241.008 229.546C240.986 229.49 241.008 229.427 241.068 229.4L244.385 227.998C244.441 227.976 244.505 227.998 244.531 228.058C244.553 228.114 244.531 228.177 244.471 228.203L241.154 229.605C241.154 229.605 241.124 229.612 241.113 229.612H241.109ZM244.519 217.488C244.519 217.488 244.493 217.488 244.478 217.481L241.142 216.127C241.087 216.104 241.061 216.041 241.083 215.985C241.105 215.93 241.168 215.904 241.224 215.926L244.56 217.28C244.616 217.302 244.642 217.365 244.62 217.421C244.601 217.462 244.56 217.488 244.519 217.488Z" fill="black"/>
<path d="M260.479 230.104C259.88 230.357 259.207 230.365 258.605 230.119L251.375 227.181C248.522 226.028 247.15 222.781 248.303 219.929C249.34 217.37 252.093 215.956 254.778 216.607C256.344 213.959 259.758 213.082 262.406 214.647C264.782 216.053 265.772 218.984 264.73 221.543L261.796 228.773C261.55 229.375 261.078 229.855 260.479 230.104Z" fill="#F99100"/>
<path d="M375.197 87.4757C368.964 90.9903 366.758 98.8973 370.277 105.131C373.791 111.364 381.698 113.569 387.931 110.051C394.165 106.536 396.37 98.6295 392.852 92.3962C389.337 86.1629 381.43 83.9574 375.197 87.4757ZM387.355 98.477C388.757 100.973 387.879 104.13 385.387 105.54C382.892 106.942 379.734 106.064 378.325 103.572C377.971 102.951 378.195 102.159 378.816 101.806L385.588 97.9861C386.209 97.6328 387.002 97.8559 387.355 98.477Z" fill="#FFBF66"/>
<path d="M383.681 95.8932C384.396 95.8932 384.975 95.3138 384.975 94.599C384.975 93.8842 384.396 93.3047 383.681 93.3047C382.966 93.3047 382.387 93.8842 382.387 94.599C382.387 95.3138 382.966 95.8932 383.681 95.8932Z" fill="#363636"/>
<path d="M376.904 99.7135C377.618 99.7135 378.198 99.1341 378.198 98.4193C378.198 97.7045 377.618 97.125 376.904 97.125C376.189 97.125 375.609 97.7045 375.609 98.4193C375.609 99.1341 376.189 99.7135 376.904 99.7135Z" fill="#363636"/>
<path d="M385.387 105.542C382.891 106.944 379.734 106.066 378.324 103.574C377.971 102.953 378.194 102.161 378.815 101.808L385.588 97.9883C386.209 97.6349 387.001 97.8581 387.354 98.4792C388.756 100.975 387.879 104.136 385.387 105.542Z" fill="#363636"/>
<path d="M303.445 180.852H367.662C367.662 180.852 372.583 182.45 372.952 207.412C373.056 214.472 375.472 231.37 376.274 240.488C378.307 263.611 381.687 288.196 381.687 288.196H353.022L339.49 240.978L334.201 199.908L337.4 241.224L342.566 291.515H314.64L307.014 241.593L303.445 180.852Z" fill="#D8CBB8"/>
<path d="M348.965 116.786C348.965 119.807 345.919 123.548 339.431 123.548C332.942 123.548 329.527 119.807 329.527 116.786C329.527 113.765 333.249 113.836 339.737 113.836C346.225 113.836 348.965 113.765 348.965 116.786Z" fill="black"/>
<path d="M368.418 128.107C367.197 138.84 365.933 149.953 364.71 160.688C365.654 166.355 366.716 175.186 367.662 180.853H303.445C307.205 162.491 311.009 143.902 314.772 125.54C315.138 123.745 316.583 122.371 318.373 122.081L334.94 119.375L349.457 120.85L364.732 123.266C364.945 123.299 365.153 123.348 365.353 123.411C367.361 124.019 368.667 126.049 368.418 128.107Z" fill="#FFD397"/>
<path d="M368.108 130.818L367.719 134.258L313.121 133.601L313.824 130.164L368.108 130.818Z" fill="#F2F2F2"/>
<path d="M368.391 126.889L314.633 126.241L314.778 125.54C315.008 124.416 315.659 123.452 316.562 122.82L365.359 123.409C366.96 123.904 368.126 125.267 368.394 126.889H368.391Z" fill="#8E8E8D"/>
<path d="M366.433 145.556L366.042 148.993L310.105 148.32L310.811 144.883L366.433 145.556Z" fill="#F2F2F2"/>
<path d="M367.272 138.186L366.881 141.625L311.617 140.958L312.318 137.523L367.272 138.186Z" fill="#F2F2F2"/>
<path d="M365.222 163.739L307.094 163.039L307.797 159.602L364.757 160.291L364.713 160.685L365.222 163.739Z" fill="#F2F2F2"/>
<path d="M365.597 152.921L365.206 156.358L308.602 155.676L309.305 152.242L365.597 152.921Z" fill="#F2F2F2"/>
<path d="M367.667 178.391L304.082 177.759L304.785 174.324L367.112 175.074L367.667 178.391Z" fill="#F2F2F2"/>
<path d="M366.455 171.133L305.59 170.399L306.29 166.965L365.88 167.685L366.455 171.133Z" fill="#F2F2F2"/>
<path d="M333.59 126.871C333.59 126.871 324.932 159.427 326.497 182.848C326.678 185.56 324.855 187.987 322.198 188.567C314.678 190.207 308.31 190.275 303.341 188.439C301.965 187.93 301.179 186.482 301.483 185.048L313.647 127.549C314.251 124.687 316.528 122.473 319.41 121.948L330.148 119.988L333.593 126.873L333.59 126.871ZM340.601 126.871L336.524 184.162C336.392 186.02 337.681 187.85 339.539 187.968C353.148 188.841 343.061 183.924 361.147 176.546C363.068 175.763 369.854 183.965 369.638 181.904L367.298 159.577L369.17 127.317C369.293 125.188 367.763 123.319 365.651 123.02L349.459 120.722L340.601 126.871Z" fill="#363636"/>
<path d="M346.998 94.5298C346.998 94.5298 345.89 90.7535 341.216 91.0873C336.542 91.4212 338.386 96.2729 338.386 96.2729C338.386 96.2729 344.045 97.8738 346.998 94.5298Z" fill="#141414"/>
<path d="M344.538 95.8317C344.538 95.8317 340.11 88.4924 334.575 90.7226C329.039 92.9529 331.006 99.5122 328.915 100.404C326.825 101.296 326.086 100.183 326.086 100.183C326.086 100.183 327.44 105.199 334.698 103.193C341.955 101.187 344.541 95.8344 344.541 95.8344L344.538 95.8317Z" fill="#141414"/>
<path d="M334.551 126.933C342.793 128.654 349.437 120.907 349.437 120.907C346.608 119.062 344.886 108.119 344.886 108.119L343.217 108.051L334.184 109.104V109.126C334.283 112.799 333.697 115.305 332.964 116.991C332.931 117.065 332.898 117.139 332.862 117.21C331.751 119.522 329.631 120.294 329.631 120.294C329.631 120.294 326.166 125.184 334.551 126.933ZM263.219 129.945C263.219 129.945 264.327 133.018 271.707 132.159C279.088 131.297 285.855 124.166 283.025 119.987C280.196 115.806 269.617 107.939 266.418 109.044C263.219 110.15 263.219 129.948 263.219 129.948V129.945Z" fill="#D5C028"/>
<path d="M351.426 98.3438C351.426 98.3438 350.687 104.493 348.719 106.091C346.752 107.689 344.535 99.0826 344.535 99.0826L351.426 98.3438Z" fill="#494949"/>
<path d="M332.862 117.206C339.408 117.698 343.285 108.977 343.285 108.977C343.31 108.613 343.285 108.304 343.214 108.047L334.181 109.12C334.28 112.792 333.694 115.299 332.961 116.984C332.928 117.058 332.895 117.132 332.859 117.203L332.862 117.206Z" fill="black"/>
<path d="M349.624 104.114C348.981 103.217 347.939 102.754 346.839 102.76C345.93 98.0832 342.581 95.4562 338.481 95.8612C334.043 96.2963 330.411 100.116 330.942 105.537C331.476 110.958 332.456 115.301 336.894 114.863C339.379 114.62 342.422 112.929 344.526 110.537C345.957 110.428 347.542 109.883 348.491 109.202C350.237 107.951 350.746 105.674 349.627 104.114H349.624Z" fill="#D5C028"/>
<path d="M348.849 107.1C348.307 106.191 347.484 105.433 346.531 104.968L346.671 104.684C347.678 105.176 348.548 105.978 349.12 106.938L348.846 107.1H348.849Z" fill="black"/>
<path d="M348.162 105.953L347.699 107.387L348.162 105.953Z" fill="white"/>
<path d="M348.009 105.903L347.547 107.336L347.849 107.433L348.311 106.001L348.009 105.903Z" fill="black"/>
<path d="M338.842 105.05C339.119 105.022 339.312 104.687 339.274 104.3C339.236 103.914 338.981 103.623 338.704 103.65C338.427 103.677 338.234 104.013 338.272 104.399C338.31 104.786 338.565 105.077 338.842 105.05Z" fill="black"/>
<path d="M333.608 105.393C333.884 105.366 334.078 105.031 334.04 104.644C334.002 104.258 333.747 103.966 333.47 103.994C333.193 104.021 333 104.356 333.038 104.743C333.076 105.129 333.331 105.421 333.608 105.393Z" fill="black"/>
<path d="M334.029 108.279L333.887 107.995C334.699 107.59 335.329 106.865 335.616 106.003C335.904 105.141 335.835 104.183 335.427 103.373L335.712 103.23C336.155 104.117 336.232 105.162 335.917 106.104C335.602 107.045 334.916 107.836 334.026 108.279H334.029ZM336.339 110.46L336.298 110.146C337.576 109.973 338.739 108.994 339.122 107.765L339.425 107.861C338.998 109.226 337.759 110.271 336.341 110.463L336.339 110.46Z" fill="black"/>
<path d="M336.305 115.055C335.654 115.055 335.063 114.942 334.543 114.721L334.666 114.428C335.296 114.696 336.04 114.789 336.88 114.707C339.348 114.463 342.372 112.748 344.408 110.433L344.452 110.383L344.517 110.378C345.897 110.274 347.456 109.749 348.401 109.073C350.073 107.877 350.565 105.693 349.501 104.207C348.912 103.389 347.952 102.918 346.863 102.918C346.857 102.918 346.852 102.918 346.843 102.918H346.712L346.688 102.79C345.812 98.2744 342.599 95.6145 338.5 96.0168L338.47 95.7021C342.703 95.2862 346.028 97.9898 346.975 102.604C348.121 102.634 349.131 103.148 349.758 104.024C350.926 105.652 350.398 108.035 348.584 109.333C347.612 110.028 346.02 110.572 344.602 110.69C342.487 113.073 339.474 114.77 336.91 115.022C336.702 115.041 336.5 115.052 336.305 115.052V115.055Z" fill="black"/>
<path d="M343.059 100.311C343.059 100.311 345.026 102.895 344.534 104.862H345.272C345.272 104.862 345.888 102.525 348.225 102.525C350.562 102.525 347.733 98.3438 347.733 98.3438L343.059 100.311Z" fill="#494949"/>
<path d="M351.181 98.9279C351.181 98.9279 348.523 99.1879 347.12 99.6996C345.275 100.373 342.531 101.637 342.076 100.069C341.461 97.951 340.478 98.0632 337.402 97.951C337.402 97.951 340.601 93.381 345.275 92.9377C349.949 92.4917 351.796 94.4948 351.796 96.725C351.796 98.9553 351.181 98.9279 351.181 98.9279Z" fill="#141414"/>
<path d="M340.601 95.6388C340.601 95.6388 338.264 98.9527 335.065 99.6204C331.866 100.288 331.004 103.632 331.004 103.632C329.745 103.933 328.325 94.9547 340.601 95.6388Z" fill="#141414"/>
<path d="M350.197 120.969C349.883 121.612 349.486 122.189 349.029 122.706C348.947 122.802 348.862 122.892 348.774 122.983C348.014 123.782 347.116 124.425 346.21 124.942C346.123 124.991 346.035 125.041 345.948 125.087C344.872 125.67 343.791 126.08 342.905 126.357C342.814 126.384 342.724 126.412 342.637 126.439C341.575 126.754 340.847 126.869 340.847 126.869C339.334 124.411 340.001 120.791 340.393 119.247C340.502 118.812 340.858 118.484 341.301 118.402C341.542 118.355 341.777 118.303 342.007 118.243C342.097 118.219 342.188 118.194 342.275 118.169C343.43 117.833 344.459 117.326 345.313 116.804C345.4 116.749 345.491 116.694 345.576 116.64C347.086 115.668 347.986 114.697 347.986 114.697C348.038 114.688 348.093 114.688 348.142 114.694C348.241 114.702 348.334 114.735 348.424 114.787C349.792 115.578 350.2 120.969 350.2 120.969H350.197ZM334.296 119.781C332.966 125.938 333.59 126.871 333.59 126.871C333.59 126.871 332.312 126.658 330.996 125.889L330.738 125.73C330.03 125.276 329.329 124.649 328.836 123.801C328.76 123.664 328.686 123.525 328.618 123.377C328.256 122.589 328.067 121.634 328.174 120.476C328.399 118.016 329.014 116.555 329.635 115.69C329.745 115.537 329.854 115.403 329.964 115.285C330.645 114.543 331.247 114.453 331.247 114.453C330.429 115.381 331.015 116.188 331.92 116.796C332.003 116.853 332.087 116.905 332.175 116.957C332.479 117.14 332.804 117.302 333.116 117.441C334.014 117.841 334.498 118.823 334.29 119.781H334.296Z" fill="#FFBF66"/>
<path d="M277.246 128.465C277.246 128.465 275.155 125.822 278.108 114.449C278.108 114.449 275.289 105.676 278.723 104.633C280.814 103.999 281.553 105.241 281.799 108.423C282.045 111.609 282.907 112.605 285.614 117.153C287.026 119.525 285.491 130.827 285.491 130.827C285.491 130.827 277.864 133.602 277.248 128.465H277.246Z" fill="#D5C028"/>
<path d="M279.326 122.439L271.938 95.5229C271.916 95.4408 271.886 95.3642 271.853 95.2903L272.63 94.9674L270.892 94.4803C270.723 94.4557 270.547 94.4693 270.375 94.5323L258.233 99.0119C257.585 99.25 257.234 100.082 257.451 100.867L264.839 127.783C265.014 128.418 265.501 128.829 266.027 128.837L267.182 128.829L267.149 128.498L278.546 124.294C279.195 124.056 279.545 123.224 279.329 122.439H279.326Z" fill="#3B4DF6"/>
<path d="M279.894 124.342L267.749 128.791C267.101 129.03 266.4 128.592 266.187 127.814L258.828 101.178C258.615 100.4 258.965 99.5767 259.614 99.3386L271.758 94.8891C272.407 94.651 273.107 95.0888 273.321 95.866L280.679 122.503C280.892 123.28 280.542 124.104 279.894 124.342Z" fill="#D8CBB8"/>
<path d="M278.846 123.681L268.277 127.554C267.629 127.792 266.928 127.354 266.715 126.577L259.879 101.831C259.666 101.053 260.016 100.23 260.664 99.9917L271.233 96.1196C271.881 95.8815 272.582 96.3193 272.795 97.0965L279.631 121.843C279.844 122.62 279.494 123.443 278.846 123.681Z" fill="#141414"/>
<path d="M262.254 99.0833L263.264 99.7209C263.406 99.8112 263.584 99.8277 263.745 99.7702L269.087 97.8355C269.298 97.7589 269.445 97.5646 269.456 97.3457L269.5 96.3906L262.257 99.0833H262.254Z" fill="#D8CBB8"/>
<path d="M259.535 115.974C259.535 115.974 254.068 107.649 258.121 106.514C262.173 105.378 261.421 114.731 261.421 114.731L259.538 115.974H259.535Z" fill="#D5C028"/>
<path d="M257.626 118.41C257.626 118.41 255.724 114.149 258.934 112.844C261.336 111.869 264.998 114.573 266.692 115.996C267.54 116.71 268.142 117.685 268.339 118.776C268.607 120.251 268.191 122.005 264.648 121.921C258.575 121.776 257.629 118.41 257.629 118.41H257.626Z" fill="#D5C028"/>
<path d="M262.974 127.261C261.187 127.56 259.452 126.503 258.91 124.771C258.272 122.727 257.766 120.092 259.08 119.378C261.31 118.171 267.782 119.881 267.716 122.976C267.667 125.269 265.71 126.802 262.974 127.259V127.261Z" fill="#D5C028"/>
<path d="M359.513 196.513C354.617 194.384 351.459 191.059 349.243 187.086C348.657 186.035 348.802 184.727 349.615 183.838L355.375 177.555L368.453 189.53L362.671 195.837C361.869 196.71 360.599 196.984 359.513 196.513Z" fill="#FFBF66"/>
<path d="M392.55 165.186L392.246 165.44C389.441 167.449 383.412 167.695 378.834 164.239C368.969 157.568 362.506 148.712 357.613 138.856C354.242 134.822 354.781 128.821 358.814 125.452L359.118 125.198C363.154 121.829 369.158 122.365 372.529 126.399L393.751 151.783C397.122 155.816 396.583 161.817 392.55 165.186Z" fill="#363636"/>
<path d="M392.746 150.649L393.033 150.92C396.853 154.532 396.697 159.575 394.73 164.985C388.874 174.894 379.605 182.844 369.267 189.863C366.434 191.666 364.234 192.46 361.697 191.176C358.061 189.337 355.765 186.924 354.194 184.198C352.774 181.735 353.395 179.494 355.092 176.572C361.202 166.521 368.974 157.772 379.288 151.016C384.15 148.26 388.928 147.034 392.746 150.646V150.649Z" fill="#363636"/>
<path d="M380.952 303.814H356.964L355.855 289.18H379.844L380.952 303.814Z" fill="#FFBF66"/>
<path d="M340.721 303.814H316.733L315.625 289.18H339.616L340.721 303.814Z" fill="#FFBF66"/>
<path d="M327.121 124.495L327.119 124.494C322.333 120.7 315.378 121.505 311.584 126.291L285.075 159.738C281.281 164.524 282.086 171.479 286.872 175.273L286.874 175.275C291.661 179.068 298.616 178.263 302.409 173.477L328.919 140.03C332.712 135.244 331.908 128.289 327.121 124.495Z" fill="#363636"/>
<path d="M270.168 130.56L279.518 125.164C281.59 123.968 284.244 124.68 285.439 126.751L288.929 132.798L272.07 142.527L268.581 136.481C267.385 134.409 268.097 131.755 270.168 130.56Z" fill="#FFBF66"/>
<path d="M298.771 176.055L298.803 176.069C293.577 179.036 286.963 175.426 284.76 173.374C276.627 161.67 272.199 155.647 269.736 144.947C269.244 138.308 267.955 138.691 273.182 135.725L280.808 131.297C286.035 128.331 288.804 130.192 292.003 135.479C300.615 148.882 302.864 149.979 305.858 161.402C306.69 167.455 303.997 173.092 298.771 176.055Z" fill="#363636"/>
<path d="M261.75 126.41C261.75 126.41 261.643 131.609 266.419 131.141C271.194 130.673 271.862 126.158 270.603 124.675C269.456 123.323 265.647 123.309 261.75 126.41Z" fill="#D5C028"/>
<path d="M381.593 280.203H351.886C350.203 280.203 348.84 281.567 348.84 283.249V291.174C348.84 292.856 350.203 294.219 351.886 294.219H381.593C383.275 294.219 384.639 292.856 384.639 291.174V283.249C384.639 281.567 383.275 280.203 381.593 280.203Z" fill="#363636"/>
<path d="M341.113 280.203H312.413C310.452 280.203 308.863 281.792 308.863 283.752V290.67C308.863 292.63 310.452 294.219 312.413 294.219H341.113C343.073 294.219 344.662 292.63 344.662 290.67V283.752C344.662 281.792 343.073 280.203 341.113 280.203Z" fill="#363636"/>
<path d="M346.135 320.901H281.918C281.918 319.965 281.956 319.054 282.036 318.17C282.044 318.063 282.055 317.959 282.066 317.852C282.692 311.506 285.352 306.745 290.04 306.441C292.385 306.291 296.142 305.371 299.916 304C300.091 303.937 300.266 303.872 300.441 303.806C302.458 303.051 304.464 302.167 306.243 301.209C306.366 301.143 306.483 301.078 306.604 301.009C308.85 299.761 310.698 298.39 311.688 296.998C315.01 292.332 311.073 292.682 321.408 291.634C331.741 290.586 332.973 299.329 332.973 299.329C334.965 296.437 337.526 295.129 339.57 294.54C341.144 294.089 342.698 295.293 342.673 296.932C342.646 298.708 342.912 301.302 344.044 304.693C345.541 309.17 345.979 314.558 346.1 317.852C346.102 317.962 346.108 318.066 346.11 318.17C346.165 319.842 346.135 320.901 346.135 320.901Z" fill="#F2F2F2"/>
<path d="M312.966 308.497L312.823 308.779C308.713 306.713 304.379 305.109 299.915 304.001C300.091 303.938 300.266 303.873 300.441 303.807C304.77 304.915 308.973 306.489 312.966 308.497ZM315.743 306.855L315.524 307.085C312.845 304.551 309.671 302.545 306.239 301.207C306.363 301.142 306.48 301.076 306.601 301.007C309.977 302.362 313.097 304.351 315.74 306.853L315.743 306.855ZM346.11 318.171H282.035C282.043 318.064 282.054 317.96 282.065 317.853H346.102C346.105 317.963 346.11 318.067 346.113 318.171H346.11ZM333.243 306.141L332.945 306.081C333.391 303.903 333.311 301.62 332.715 299.481L333.01 299.398C333.618 301.588 333.7 303.919 333.243 306.144V306.141Z" fill="black"/>
<path d="M389.072 323.362H331.25C331.239 322.549 331.226 321.807 331.22 321.123C331.22 321.016 331.22 320.91 331.22 320.806C331.179 314.027 332.044 313.256 344.415 307.624C345.723 307.027 346.889 306.423 347.926 305.821C348.047 305.75 348.167 305.678 348.282 305.61C349.171 305.076 349.962 304.543 350.663 304.012C350.753 303.943 350.841 303.878 350.928 303.809C357.414 298.777 356.037 294.221 356.037 294.221C356.037 294.221 358.314 293.605 364.096 293.115C369.878 292.623 370.371 298.525 370.371 298.525C377.874 292.623 380.458 294.221 380.458 294.221C380.458 294.221 379.596 297.294 383.533 304.058C386.366 308.924 387.988 316.78 388.675 320.806C388.695 320.915 388.711 321.019 388.727 321.123C388.96 322.508 389.069 323.362 389.069 323.362H389.072Z" fill="#F2F2F2"/>
<path d="M355.126 309.668L354.915 309.903C352.885 308.089 350.498 306.696 347.926 305.818C348.047 305.747 348.167 305.675 348.282 305.607C350.797 306.502 353.131 307.884 355.123 309.668H355.126ZM357.78 309.435L357.559 309.662C355.421 307.599 353.109 305.706 350.668 304.009C350.758 303.94 350.846 303.875 350.934 303.806C353.361 305.495 355.654 307.383 357.783 309.433L357.78 309.435ZM388.733 321.123H331.223C331.223 321.016 331.223 320.909 331.223 320.805H388.683C388.703 320.915 388.719 321.019 388.735 321.123H388.733ZM370.174 305.651L369.873 305.596C370.283 303.281 370.401 300.917 370.215 298.571L370.519 298.547C370.705 300.919 370.587 303.308 370.171 305.648L370.174 305.651Z" fill="black"/>
<path d="M331.065 321.122V320.804C331.041 317.187 331.312 315.397 333.049 313.673C334.809 311.925 337.994 310.373 344.348 307.48L344.474 307.76C332.061 313.41 331.325 314.141 331.366 320.802V321.119L331.062 321.122H331.065Z" fill="black"/>
<path d="M312.457 132.321L303.973 172.406L304.283 172.472L312.767 132.386L312.457 132.321Z" fill="black"/>
<path d="M311.032 138.861C310.573 136.792 310.458 134.674 310.693 132.567L311.008 132.602C310.775 134.674 310.887 136.756 311.342 138.792L311.032 138.861ZM370.565 157.663C367.21 154.262 364.427 150.794 362.054 147.062L362.038 147.026C362.027 146.996 361.069 143.994 360.612 140.248C359.846 133.962 361.058 130.443 362.21 128.596C363.573 126.415 365.685 125.104 368.493 124.699L368.54 125.014C365.828 125.405 363.789 126.667 362.478 128.766C358.642 134.909 362.164 146.372 362.333 146.911C364.692 150.616 367.456 154.062 370.789 157.441L370.562 157.663H370.565Z" fill="black"/>
<path d="M355.19 176.696L354.922 176.526C361.26 166.439 367.841 159.081 375.629 153.367L375.818 153.622C368.062 159.314 361.506 166.645 355.19 176.696Z" fill="black"/>
<path d="M370.839 157.472L370.527 157.409C370.875 155.715 371.994 154.213 373.518 153.395L373.669 153.674C372.227 154.451 371.17 155.871 370.839 157.475V157.472Z" fill="black"/>
<path d="M297.571 143.539L297.305 143.711L302.147 151.21L302.413 151.038L297.571 143.539Z" fill="black"/>
<path d="M304.935 150.813C303.315 147.942 300.803 145.55 297.855 144.073L297.998 143.788C301 145.293 303.561 147.731 305.211 150.657L304.935 150.813ZM357.67 139.125H343.432L343.738 136.386H357.976L357.67 139.125ZM343.738 138.851H357.426L357.67 136.659H343.982L343.738 138.851ZM326.558 138.553H314.441L314.852 136.027H326.969L326.558 138.553ZM314.74 138.301H326.345L326.673 136.282H315.068L314.74 138.301Z" fill="black"/>
<path d="M324.91 148.683H312.793L314.481 138.301H326.599L324.91 148.683ZM313.091 148.431H324.697L326.303 138.555H314.698L313.091 148.431Z" fill="black"/>
<path d="M351.74 181.518C351.74 181.518 352.657 194.131 368.159 196.711C368.159 196.711 365.822 202.491 349.46 201.629C333.099 200.767 347.996 185.505 351.743 181.516L351.74 181.518Z" fill="#D8CBB8"/>
<path d="M365.57 195.812C361.969 195.369 358.6 193.686 356.085 191.072C353.57 188.459 352.019 185.027 351.718 181.413L351.969 181.391C352.268 184.948 353.792 188.322 356.268 190.894C358.742 193.467 362.059 195.125 365.603 195.56L365.573 195.809L365.57 195.812ZM342.723 196.608L342.477 196.556C343.722 190.706 346.953 185.386 351.57 181.579L351.731 181.774C347.159 185.545 343.96 190.812 342.726 196.608H342.723Z" fill="black"/>
<path d="M365.567 192.898L365.316 192.922L373.799 280.223L374.05 280.199L365.567 192.898Z" fill="black"/>
<path d="M335.823 198.7L330.531 198.057L326.637 181.432L326.883 181.375L330.736 197.827L335.533 198.412L333.462 180.863L333.713 180.836L335.823 198.7Z" fill="black"/>
<path d="M257.938 113.658L257.758 113.483C257.771 113.47 259.173 112.044 261.118 112.643C261.915 112.889 262.563 113.133 263.162 113.412L263.056 113.642C262.467 113.368 261.83 113.127 261.044 112.887C259.249 112.334 257.955 113.647 257.941 113.661L257.938 113.658ZM264.468 122.161C261.148 122.161 258.538 119.982 258.505 119.955L258.669 119.763C258.71 119.799 262.785 123.195 267.16 121.375L267.256 121.608C266.298 122.005 265.357 122.163 264.468 122.163V122.161ZM262.09 127.398C261.873 127.398 261.745 127.387 261.737 127.387L261.759 127.136C261.802 127.138 266.14 127.491 267.483 123.789L267.721 123.874C266.542 127.122 263.187 127.398 262.087 127.398H262.09ZM266.238 131.38C264.73 131.38 263.611 130.707 263.592 130.693L263.726 130.48C263.866 130.564 267.144 132.532 270.004 129.289L270.192 129.456C268.868 130.958 267.434 131.38 266.241 131.38H266.238Z" fill="black"/>
<path d="M21.1247 185.118C29.8812 184.545 37.9937 189.644 45.916 196.465L127.247 260.709L82.6729 276.636L24.6659 251.621C17.8616 225.728 11.1452 199.893 21.1247 185.118Z" fill="black"/>
<path d="M87.0704 160.224C86.5284 157.077 79.7979 157.633 81.2081 152.537C82.6184 147.438 78.399 148.715 79.3751 145.461C80.3512 142.206 77.8287 142.912 78.155 140.2C78.4813 137.487 78.2628 136.077 74.574 134.559C70.8825 133.041 72.8375 130.328 69.2537 130.328C66.1609 130.328 65.7381 133.642 65.6813 134.547C64.2824 134.006 61.5669 133.373 60.3525 134.667C58.7238 136.403 59.2657 138.137 57.3135 138.897C55.3585 139.658 53.08 138.137 52.1039 143.562C51.1278 148.985 48.2619 147.864 46.7694 150.951C45.0584 154.489 47.422 156.992 45.9153 159.614C42.1301 166.203 44.8966 165.513 40.6631 169.741C36.4295 173.972 37.7319 178.526 37.7319 178.526L70.559 163.311C75.0309 164.965 81.8466 165.221 83.9094 164.926C86.9484 164.492 87.6124 163.368 87.0704 160.221V160.224Z" fill="#FFBF66"/>
<path d="M114.298 163.208L114.114 163.195C108.748 162.829 104.101 166.881 103.734 172.247L101.726 201.634C101.359 207 105.412 211.647 110.777 212.014L110.961 212.027C116.327 212.393 120.974 208.341 121.341 202.975L123.35 173.588C123.716 168.222 119.664 163.575 114.298 163.208Z" fill="#F99100"/>
<path d="M33.9466 176.699L55.8067 162.668L82.1841 164.01L92.0245 164.981L114.058 221.85L38.3418 241.985C38.3418 241.985 32.8456 181.705 33.9466 176.702V176.699Z" fill="#F99100"/>
<path d="M108.562 164.492C108.562 164.492 122.849 138.379 126.637 138.379C130.425 138.379 128.836 142.405 126.759 146.92C124.682 151.434 115.545 167.741 115.545 167.741C115.545 167.741 111.981 171.081 110.148 169.495C108.315 167.909 108.562 164.492 108.562 164.492Z" fill="#FFD396"/>
<path d="M123.584 151.075C123.584 151.075 130.179 149.976 128.224 154.857C128.224 154.857 132.619 156.321 130.789 159.249C130.789 159.249 136.285 159.737 131.643 164.984C131.643 164.984 128.102 177.673 117.478 178.405C106.854 179.137 106.119 167.912 108.563 164.496C111.006 161.08 123.584 151.075 123.584 151.075Z" fill="#FFD396"/>
<path d="M107.752 168.185C107.752 168.185 106.484 162.82 109.04 159.67C110.68 157.65 112.996 153.853 114.446 151.39C115.218 150.079 117.139 150.116 117.845 151.464C118.546 152.803 118.921 154.651 117.859 156.878C115.578 161.662 118.799 166.355 116.614 168.688C114.429 171.02 109.245 173.052 107.752 168.188V168.185Z" fill="#FFD396"/>
<path d="M123.679 160.438C123.231 160.438 122.768 160.33 122.297 160.117C122.221 160.083 122.187 159.992 122.221 159.916C122.255 159.839 122.346 159.805 122.422 159.839C123.248 160.214 124.042 160.228 124.777 159.879C126.993 158.826 128.063 154.854 128.075 154.814C128.097 154.732 128.18 154.683 128.259 154.706C128.341 154.729 128.39 154.811 128.367 154.89C128.355 154.933 128.089 155.935 127.533 157.09C126.778 158.653 125.895 159.683 124.908 160.154C124.511 160.344 124.099 160.438 123.676 160.438H123.679ZM126.818 162.875C126.256 162.875 125.714 162.682 125.2 162.296C125.132 162.245 125.121 162.152 125.169 162.084C125.22 162.015 125.314 162.004 125.382 162.052C125.986 162.503 126.63 162.66 127.297 162.518C129.275 162.089 130.881 159.203 130.895 159.172C130.935 159.098 131.028 159.073 131.102 159.113C131.176 159.152 131.201 159.246 131.162 159.32C131.145 159.351 130.739 160.086 130.072 160.886C129.167 161.973 128.253 162.623 127.362 162.816C127.178 162.855 126.996 162.875 126.815 162.875H126.818ZM129.201 165.608C128.148 165.608 127.43 165.25 127.107 164.558C127.07 164.481 127.107 164.39 127.181 164.356C127.257 164.319 127.348 164.356 127.382 164.43C128.168 166.113 131.553 164.853 131.587 164.842C131.667 164.813 131.755 164.85 131.783 164.93C131.814 165.009 131.775 165.097 131.695 165.125C131.658 165.14 130.782 165.469 129.78 165.577C129.576 165.599 129.383 165.611 129.201 165.611V165.608ZM121.648 156.735C121.622 156.735 121.597 156.729 121.571 156.715C121.497 156.672 121.472 156.582 121.514 156.508C123.705 152.674 125.81 148.447 125.83 148.404C125.867 148.33 125.958 148.299 126.034 148.336C126.111 148.373 126.139 148.464 126.103 148.54C126.083 148.583 123.974 152.819 121.778 156.661C121.75 156.709 121.699 156.738 121.645 156.738L121.648 156.735ZM116.611 168.837C116.574 168.837 116.537 168.823 116.506 168.797C116.444 168.74 116.441 168.644 116.498 168.581C117.502 167.509 117.301 165.857 117.071 163.945C116.81 161.783 116.515 159.328 117.715 156.809C118.586 154.984 118.583 153.208 117.704 151.531C117.474 151.091 117.088 150.776 116.614 150.646C116.534 150.623 116.486 150.538 116.509 150.458C116.532 150.379 116.617 150.331 116.696 150.353C117.25 150.509 117.704 150.875 117.973 151.392C118.898 153.157 118.904 155.024 117.99 156.939C116.827 159.379 117.116 161.786 117.372 163.908C117.61 165.897 117.817 167.614 116.719 168.789C116.688 168.82 116.648 168.837 116.608 168.837H116.611Z" fill="black"/>
<path d="M70.9181 220.364C72.5178 219.985 72.4246 213.807 70.71 206.565C68.9954 199.323 66.3086 193.76 64.709 194.138C63.1093 194.517 63.2025 200.695 64.9171 207.937C66.6317 215.179 69.3184 220.743 70.9181 220.364Z" fill="black"/>
<path d="M72.0478 177.31C56.904 180.238 50.304 169.526 48.3575 167.915C47.7928 167.447 55.5562 163.085 55.8996 162.438C57.1679 160.061 59.0832 153.98 58.005 151.074L60.3658 151.747L71.6817 154.979C71.8945 156.182 72.235 158.375 72.8394 160.049C73.2764 161.261 73.8496 162.2 74.61 162.299C75.711 162.441 81.4853 162.995 81.9365 164.008C83.0771 166.561 79.553 175.857 72.0449 177.307L72.0478 177.31Z" fill="#FFD396"/>
<path d="M72.8398 160.049C72.4624 160.477 71.8183 160.758 70.8337 160.837C63.9669 161.399 60.8655 153.216 60.3633 151.746L71.6792 154.978C71.892 156.181 72.2325 158.374 72.8369 160.049H72.8398Z" fill="black"/>
<path d="M56.7085 146.271C57.347 145.38 58.3798 144.923 59.4751 144.926C60.3774 140.287 63.703 137.679 67.7719 138.079C72.1786 138.511 75.785 142.301 75.2544 147.681C74.7267 153.061 73.7534 157.371 69.3467 156.937C66.881 156.696 63.859 155.016 61.7706 152.644C60.3519 152.536 58.7771 151.994 57.835 151.319C56.1013 150.079 55.5962 147.818 56.7057 146.271H56.7085Z" fill="#FFD396"/>
<path d="M57.4805 149.233L57.2109 149.071C57.7813 148.117 58.6439 147.323 59.6427 146.832L59.7817 147.116C58.8368 147.578 58.0196 148.33 57.4805 149.233Z" fill="black"/>
<path d="M58.1602 148.094C58.3134 148.568 58.4666 149.041 58.6198 149.515L58.1602 148.094Z" fill="white"/>
<path d="M58.3115 148.044L58.0117 148.141L58.4708 149.564L58.7706 149.467L58.3115 148.044Z" fill="black"/>
<path d="M67.9822 146.556C68.02 146.173 67.8269 145.84 67.5508 145.812C67.2748 145.785 67.0204 146.074 66.9825 146.458C66.9447 146.841 67.1378 147.174 67.4139 147.202C67.6899 147.229 67.9444 146.94 67.9822 146.556Z" fill="black"/>
<path d="M73.1814 146.9C73.2192 146.516 73.0261 146.183 72.7501 146.156C72.474 146.129 72.2196 146.418 72.1818 146.801C72.1439 147.185 72.3371 147.518 72.6131 147.545C72.8891 147.573 73.1436 147.284 73.1814 146.9Z" fill="black"/>
<path d="M72.1931 150.406C71.3135 149.966 70.6297 149.18 70.3176 148.246C70.0054 147.313 70.082 146.274 70.5219 145.395L70.8028 145.536C70.3998 146.342 70.3317 147.293 70.6155 148.147C70.8992 149.001 71.5263 149.722 72.3322 150.125L72.1903 150.406H72.1931ZM69.8976 152.571C68.4902 152.38 67.2587 151.345 66.8359 149.988L67.1367 149.895C67.5169 151.118 68.6718 152.088 69.9402 152.258L69.8976 152.571Z" fill="black"/>
<path d="M69.9354 157.126C69.7396 157.126 69.5409 157.115 69.3338 157.095C66.7886 156.845 63.7978 155.16 61.6981 152.796C60.2935 152.677 58.713 152.141 57.7483 151.448C56.88 150.827 56.2785 149.936 56.0571 148.946C55.833 147.947 56.0203 146.965 56.5849 146.179C57.2063 145.311 58.208 144.803 59.3486 144.772C60.2879 140.195 63.5879 137.51 67.7902 137.925L67.759 138.237C63.6929 137.837 60.5035 140.476 59.6324 144.959L59.6069 145.087H59.4763C59.4763 145.087 59.465 145.087 59.4593 145.087C58.3782 145.087 57.422 145.552 56.8403 146.363C56.3295 147.076 56.1621 147.969 56.3636 148.877C56.5679 149.794 57.124 150.617 57.9327 151.193C58.8691 151.863 60.4184 152.385 61.7889 152.487L61.8542 152.492L61.8967 152.541C63.917 154.836 66.9191 156.542 69.3679 156.783C70.2021 156.865 70.9398 156.771 71.5669 156.508L71.6889 156.797C71.1725 157.015 70.5851 157.126 69.9382 157.126H69.9354Z" fill="black"/>
<path d="M66.732 194.576L36.785 214.106C21.1419 224.134 28.6726 247.191 46.9688 235.418L75.7098 212.333C88.4105 203.304 74.8189 188.254 66.7291 194.578L66.732 194.576Z" fill="#FFD396"/>
<path d="M123.173 187.904L86.8674 202.273C84.9606 203.028 83.0169 201.956 82.526 199.881L76.4651 174.29C75.9742 172.216 77.1206 169.92 79.0274 169.165L115.333 154.796C117.24 154.042 119.184 155.114 119.675 157.188L125.735 182.78C126.226 184.854 125.08 187.15 123.173 187.904Z" fill="black"/>
<path d="M123.711 187.812L87.3284 202.209C85.5607 202.91 83.7588 201.917 83.302 199.99L77.1957 174.203C76.7389 172.279 77.8029 170.151 79.5707 169.45L115.953 155.053C117.721 154.352 119.523 155.345 119.98 157.272L126.086 183.059C126.543 184.983 125.479 187.111 123.711 187.812Z" fill="#F2F2F2"/>
<path d="M111.82 163.282L111.346 161.276C111.218 160.74 111.516 160.147 112.01 159.951L115.772 158.461C116.266 158.265 116.768 158.543 116.896 159.08L117.37 161.086C117.498 161.622 117.2 162.215 116.706 162.411L112.943 163.901C112.45 164.096 111.948 163.818 111.82 163.282Z" fill="#D8CBB8"/>
<path d="M116.38 161.099C116.605 160.48 116.354 159.822 115.821 159.629C115.287 159.435 114.673 159.78 114.449 160.399C114.225 161.018 114.475 161.676 115.009 161.869C115.542 162.063 116.156 161.718 116.38 161.099Z" fill="black"/>
<path d="M113.624 161.959C113.777 161.535 113.607 161.084 113.243 160.952C112.879 160.82 112.46 161.057 112.306 161.482C112.152 161.906 112.322 162.357 112.686 162.489C113.05 162.621 113.47 162.384 113.624 161.959Z" fill="white"/>
<path d="M114.184 161.356C114.22 161.259 114.18 161.155 114.096 161.125C114.012 161.094 113.915 161.149 113.88 161.246C113.845 161.343 113.884 161.447 113.968 161.477C114.052 161.507 114.149 161.453 114.184 161.356Z" fill="black"/>
<path d="M120.678 160.378L120.41 160.441L125.828 183.326L126.096 183.263L120.678 160.378Z" fill="#202020"/>
<path d="M62.205 197.527L71.6823 188.901L82.6719 188.047L89.113 205.097C89.113 205.097 76.5656 212.288 71.5603 215.664C71.5603 215.664 63.987 215.625 60.6898 209.768C57.3926 203.911 62.205 197.53 62.205 197.53V197.527ZM188.55 314.707C180.489 321.662 129.323 317.758 129.323 317.758L133.466 307.821L140.313 291.4C140.313 291.4 142.756 285.299 152.281 285.299C161.807 285.299 163.271 287.74 163.271 287.74C163.271 287.74 162.82 300.105 174.017 302.285C174.485 302.375 174.973 302.449 175.481 302.503C184.246 303.428 196.609 307.75 188.548 314.704L188.55 314.707Z" fill="#FFD396"/>
<path d="M82.3252 188.069L89.6317 182.794C89.6317 182.794 96.2261 177.059 97.4462 177.791C98.6663 178.523 99.5233 181.33 96.8361 184.502C94.149 187.674 91.4619 189.748 91.4619 189.748L84.3795 194.629C84.3795 194.629 82.1805 194.751 81.2044 192.189C80.2283 189.626 82.3252 188.066 82.3252 188.066V188.069Z" fill="#FFD396"/>
<path d="M86.2148 199.638C86.2148 199.638 91.9551 195.611 92.5652 194.635C93.1752 193.659 98.1834 187.558 96.8384 184.508C95.4935 181.458 90.8541 186.704 87.923 190.487C84.9919 194.269 82.1487 193.69 82.1487 193.69C82.1487 193.69 79.9439 196.548 81.8167 198.906C83.6866 201.264 86.212 199.638 86.212 199.638H86.2148Z" fill="#FFD396"/>
<path d="M86.5796 203.054C86.5796 203.054 94.6409 197.319 95.251 195.489C95.8611 193.659 98.3723 188.219 96.4711 186.948C94.57 185.677 91.0969 193.049 91.0969 193.049L83.1973 198.826C83.1973 198.826 81.892 200.662 83.1973 202.285C84.5025 203.908 86.5796 203.054 86.5796 203.054Z" fill="#FFD396"/>
<path d="M87.8048 205.864C87.8048 205.864 92.935 202.935 93.9111 201.837C94.5438 201.125 95.9881 195.737 94.6431 195.004C93.2982 194.272 91.1275 195.189 90.1996 197.172C89.2717 199.153 84.3856 201.105 84.3856 201.105C84.3856 201.105 83.0434 203.25 84.3856 204.74C85.7277 206.23 87.8048 205.864 87.8048 205.864Z" fill="#FFD396"/>
<path d="M188.551 314.705C180.49 321.66 129.324 317.755 129.324 317.755L133.467 307.818C139 311.95 160.874 312.537 169.134 310.678C175.47 309.254 175.079 305.057 174.021 302.285C174.489 302.376 174.977 302.45 175.485 302.504C184.25 303.429 196.613 307.75 188.551 314.705Z" fill="#D5C028"/>
<path d="M69.0117 191.888C69.0117 191.888 69.4856 189.388 72.1727 185.118C73.7589 182.595 72.0507 176.211 73.2708 175.723C74.4909 175.235 77.2149 174.548 78.157 180.481C79.0962 186.415 80.3163 190.214 80.3163 190.214C80.3163 190.214 77.6689 195.614 73.6397 194.638C69.6104 193.662 69.0146 191.891 69.0146 191.891L69.0117 191.888Z" fill="#FFD396"/>
<path d="M86.2148 193.568C86.158 193.568 86.1013 193.534 86.0758 193.48C86.0417 193.404 86.0757 193.313 86.1495 193.279C92.392 190.402 97.6613 183.064 97.7123 182.99C97.7606 182.922 97.857 182.905 97.9251 182.953C97.9932 183.002 98.0103 183.098 97.962 183.166C97.9081 183.24 92.5935 190.643 86.28 193.554C86.2602 193.563 86.2375 193.568 86.2176 193.568H86.2148ZM89.1488 198.089L88.9842 197.833C88.9842 197.833 90.1788 197.044 92.4544 194.533C94.7301 192.022 96.461 187.57 96.478 187.527L96.7618 187.638C96.7447 187.683 94.994 192.187 92.6815 194.74C90.3746 197.288 89.2027 198.06 89.1516 198.091L89.1488 198.089ZM90.4285 201.363L90.3036 201.085C92.4289 200.14 94.6563 196.196 94.679 196.156L94.9458 196.304C94.9458 196.304 94.3698 197.331 93.5355 198.452C92.409 199.967 91.362 200.946 90.4285 201.363Z" fill="black"/>
<path d="M155.885 230.518C156.643 236.993 153.07 243.202 147.092 245.806C119.071 258.013 102.299 265.226 73.7027 267.837C57.2736 269.681 40.1492 261.066 38.5347 243.829L37.8594 236.613C64.4326 222.874 95.018 217.15 140.966 212.775C147.302 212.171 153.167 216.177 154.926 222.289L155.888 230.518H155.885Z" fill="#3241CE"/>
<path d="M141.983 217.206L141.975 217.204C133.101 215.219 124.297 220.804 122.311 229.678L106.774 299.132C104.789 308.006 110.374 316.81 119.248 318.795L119.256 318.797C128.131 320.782 136.935 315.198 138.92 306.323L154.457 236.87C156.443 227.995 150.858 219.191 141.983 217.206Z" fill="#FFD396"/>
<path d="M93.2891 283.1L96.2968 293.04L105.099 322.136C105.36 322.998 106.163 323.583 107.065 323.566L108.66 323.538C109.988 323.512 110.93 322.235 110.558 320.961L101.969 291.496L99.0464 281.469L93.2891 283.1Z" fill="#D8CBB8"/>
<path d="M96.9523 295.18L102.446 293.105L99.0435 281.469L93.2891 283.1L96.9523 295.18Z" fill="black"/>
<path d="M167.907 324.346H108.033C103.944 324.346 100.931 320.527 101.884 316.557L103.068 311.617L108.198 292.864C109.86 285.552 115.158 280.296 122.975 280.663C130.79 281.029 141.814 284.07 140.684 294.572C139.966 301.237 143.82 303.249 152.605 305.896C154.273 306.399 156.12 306.924 158.146 307.508C165.952 309.758 170.069 313.081 172.215 316.182C174.604 319.633 172.107 324.346 167.907 324.346Z" fill="#FFD396"/>
<path d="M136.913 213.244L136.085 213.368C127.857 214.593 122.181 222.256 123.406 230.483L132.608 292.278C133.833 300.505 141.496 306.182 149.724 304.957L150.552 304.833C158.779 303.608 164.456 295.945 163.23 287.718L154.028 225.923C152.803 217.695 145.14 212.019 136.913 213.244Z" fill="#FFD396"/>
<path d="M152.647 306.07C152.647 306.07 152.63 306.07 152.621 306.07C147.012 305.103 143.314 303.289 141.635 300.682C140.363 298.707 140.781 297.041 140.798 296.97L146.884 270.006C146.901 269.926 146.98 269.875 147.06 269.895C147.139 269.912 147.19 269.991 147.171 270.071L141.081 297.038C141.076 297.058 140.681 298.667 141.884 300.531C143.922 303.684 148.873 305.125 152.667 305.781C152.746 305.795 152.8 305.872 152.786 305.951C152.775 306.022 152.712 306.073 152.641 306.073L152.647 306.07Z" fill="black"/>
<path d="M152.174 268.946C139.8 277.748 125.15 281.153 109.249 281.59C107.072 281.649 105.401 279.683 105.813 277.549L117.846 215.258L138.719 212.789C148.264 211.66 156.502 219.443 155.911 229.028L153.605 266.384C153.542 267.411 153.014 268.35 152.177 268.946H152.174Z" fill="#3241CE"/>
<path d="M145.707 214.157C145.707 214.157 153.014 213.669 157.287 236C159.302 246.519 160.635 252.6 161.486 256.087C162.182 258.944 160.842 261.901 158.24 263.277C148.53 268.419 137.26 271.514 124.826 273.092C123.035 273.319 121.393 272.082 121.123 270.297C119.798 261.484 116.643 236.826 121.628 229.656C127.734 220.871 128.878 213.303 145.707 214.16V214.157Z" fill="#3241CE"/>
<path d="M86.3501 193.342L86.082 193.484L90.2343 201.294L90.5023 201.151L86.3501 193.342Z" fill="black"/>
<path d="M41.2646 174.257L41.2504 174.256C35.7705 173.882 31.0245 178.02 30.65 183.5L27.6083 228.002C27.2338 233.482 31.3725 238.228 36.8524 238.603L36.8666 238.604C42.3465 238.978 47.0925 234.839 47.4671 229.359L50.5087 184.858C50.8832 179.378 46.7445 174.632 41.2646 174.257Z" fill="#F99100"/>
<path d="M70.6152 220.363C65.7205 224.145 45.3387 239.437 36.8801 238.688C27.2326 237.833 25.2776 225.632 31.3839 217.699C37.0504 210.338 60.9109 196.358 64.3188 194.383C63.1469 195.66 63.3682 201.357 64.926 207.932C66.5348 214.722 68.995 220.037 70.6152 220.363Z" fill="#F99100"/>
<path d="M41.1533 209.306C41.1051 209.306 41.0597 209.283 41.0285 209.244C40.9802 209.176 40.9944 209.082 41.0625 209.031C47.742 204.241 55.3351 199.409 64.2789 194.259C64.3527 194.216 64.4435 194.242 64.4861 194.316C64.5286 194.389 64.5031 194.48 64.4293 194.523C55.4969 199.67 47.9094 204.497 41.2384 209.281C41.2129 209.3 41.1817 209.309 41.1505 209.309L41.1533 209.306Z" fill="black"/>
<path d="M39.289 208.187C39.2436 208.187 39.201 208.168 39.1698 208.131C39.1187 208.065 39.1272 207.969 39.1925 207.918C41.9988 205.671 45.3612 204.189 48.9166 203.639C48.9989 203.625 49.0783 203.681 49.0897 203.767C49.1039 203.849 49.0443 203.928 48.962 203.94C45.4605 204.482 42.1463 205.94 39.3826 208.153C39.3542 208.176 39.3202 208.187 39.289 208.187Z" fill="black"/>
<path d="M48.9672 203.938C48.9672 203.938 48.9587 203.938 48.9558 203.938C48.8707 203.932 48.8111 203.858 48.8168 203.773L50.0369 189.132C50.0426 189.049 50.1164 188.987 50.2015 188.993C50.2866 188.998 50.3462 189.072 50.3405 189.157L49.1204 203.799C49.1147 203.878 49.0466 203.938 48.97 203.938H48.9672Z" fill="black"/>
<path d="M39.1392 180.481C39.6453 180.481 40.0557 180.071 40.0557 179.565C40.0557 179.059 39.6453 178.648 39.1392 178.648C38.633 178.648 38.2227 179.059 38.2227 179.565C38.2227 180.071 38.633 180.481 39.1392 180.481Z" fill="#FFBF66"/>
<path d="M44.9985 190.61C45.5047 190.61 45.9151 190.2 45.9151 189.694C45.9151 189.188 45.5047 188.777 44.9985 188.777C44.4924 188.777 44.082 189.188 44.082 189.694C44.082 190.2 44.4924 190.61 44.9985 190.61Z" fill="#FFBF66"/>
<path d="M52.8149 180.481C53.3211 180.481 53.7315 180.071 53.7315 179.565C53.7315 179.059 53.3211 178.648 52.8149 178.648C52.3088 178.648 51.8984 179.059 51.8984 179.565C51.8984 180.071 52.3088 180.481 52.8149 180.481Z" fill="#FFBF66"/>
<path d="M64.4165 184.021C64.9227 184.021 65.333 183.61 65.333 183.104C65.333 182.598 64.9227 182.188 64.4165 182.188C63.9103 182.188 63.5 182.598 63.5 183.104C63.5 183.61 63.9103 184.021 64.4165 184.021Z" fill="#FFBF66"/>
<path d="M58.6782 191.587C59.1844 191.587 59.5947 191.177 59.5947 190.67C59.5947 190.164 59.1844 189.754 58.6782 189.754C58.1721 189.754 57.7617 190.164 57.7617 190.67C57.7617 191.177 58.1721 191.587 58.6782 191.587Z" fill="#FFBF66"/>
<path d="M80.9048 216.845C81.411 216.845 81.8213 216.434 81.8213 215.928C81.8213 215.422 81.411 215.012 80.9048 215.012C80.3986 215.012 79.9883 215.422 79.9883 215.928C79.9883 216.434 80.3986 216.845 80.9048 216.845Z" fill="#FFBF66"/>
<path d="M90.3071 209.036C90.8133 209.036 91.2236 208.626 91.2236 208.12C91.2236 207.613 90.8133 207.203 90.3071 207.203C89.801 207.203 89.3906 207.613 89.3906 208.12C89.3906 208.626 89.801 209.036 90.3071 209.036Z" fill="#FFBF66"/>
<path d="M99.5884 213.794C100.095 213.794 100.505 213.384 100.505 212.877C100.505 212.371 100.095 211.961 99.5884 211.961C99.0822 211.961 98.6719 212.371 98.6719 212.877C98.6719 213.384 99.0822 213.794 99.5884 213.794Z" fill="#FFBF66"/>
<path d="M101.053 201.224C101.559 201.224 101.97 200.813 101.97 200.307C101.97 199.801 101.559 199.391 101.053 199.391C100.547 199.391 100.137 199.801 100.137 200.307C100.137 200.813 100.547 201.224 101.053 201.224Z" fill="#FFBF66"/>
<path d="M114.362 207.325C114.868 207.325 115.278 206.915 115.278 206.409C115.278 205.903 114.868 205.492 114.362 205.492C113.856 205.492 113.445 205.903 113.445 206.409C113.445 206.915 113.856 207.325 114.362 207.325Z" fill="#FFBF66"/>
<path d="M107.768 200.251C108.274 200.251 108.685 199.841 108.685 199.334C108.685 198.828 108.274 198.418 107.768 198.418C107.262 198.418 106.852 198.828 106.852 199.334C106.852 199.841 107.262 200.251 107.768 200.251Z" fill="#FFBF66"/>
<path d="M116.682 195.005C117.188 195.005 117.599 194.595 117.599 194.088C117.599 193.582 117.188 193.172 116.682 193.172C116.176 193.172 115.766 193.582 115.766 194.088C115.766 194.595 116.176 195.005 116.682 195.005Z" fill="#FFBF66"/>
<path d="M32.0571 198.298C32.5633 198.298 32.9736 197.888 32.9736 197.381C32.9736 196.875 32.5633 196.465 32.0571 196.465C31.551 196.465 31.1406 196.875 31.1406 197.381C31.1406 197.888 31.551 198.298 32.0571 198.298Z" fill="#FFBF66"/>
<path d="M32.5454 213.794C33.0516 213.794 33.4619 213.384 33.4619 212.877C33.4619 212.371 33.0516 211.961 32.5454 211.961C32.0392 211.961 31.6289 212.371 31.6289 212.877C31.6289 213.384 32.0392 213.794 32.5454 213.794Z" fill="#FFBF66"/>
<path d="M40.2368 222.458C40.743 222.458 41.1533 222.048 41.1533 221.542C41.1533 221.035 40.743 220.625 40.2368 220.625C39.7306 220.625 39.3203 221.035 39.3203 221.542C39.3203 222.048 39.7306 222.458 40.2368 222.458Z" fill="#FFBF66"/>
<path d="M33.7642 233.196C34.2703 233.196 34.6807 232.786 34.6807 232.28C34.6807 231.774 34.2703 231.363 33.7642 231.363C33.258 231.363 32.8477 231.774 32.8477 232.28C32.8477 232.786 33.258 233.196 33.7642 233.196Z" fill="#FFBF66"/>
<path d="M48.0532 232.708C48.5594 232.708 48.9697 232.298 48.9697 231.792C48.9697 231.285 48.5594 230.875 48.0532 230.875C47.5471 230.875 47.1367 231.285 47.1367 231.792C47.1367 232.298 47.5471 232.708 48.0532 232.708Z" fill="#FFBF66"/>
<path d="M49.272 210.864C49.7782 210.864 50.1885 210.454 50.1885 209.948C50.1885 209.442 49.7782 209.031 49.272 209.031C48.7658 209.031 48.3555 209.442 48.3555 209.948C48.3555 210.454 48.7658 210.864 49.272 210.864Z" fill="#FFBF66"/>
<path d="M55.6235 221.603C56.1297 221.603 56.5401 221.192 56.5401 220.686C56.5401 220.18 56.1297 219.77 55.6235 219.77C55.1174 219.77 54.707 220.18 54.707 220.686C54.707 221.192 55.1174 221.603 55.6235 221.603Z" fill="#FFBF66"/>
<path d="M60.5103 203.665C61.0164 203.665 61.4268 203.255 61.4268 202.749C61.4268 202.242 61.0164 201.832 60.5103 201.832C60.0041 201.832 59.5938 202.242 59.5938 202.749C59.5938 203.255 60.0041 203.665 60.5103 203.665Z" fill="#FFBF66"/>
<path d="M66.1235 219.771C66.6297 219.771 67.0401 219.36 67.0401 218.854C67.0401 218.348 66.6297 217.938 66.1235 217.938C65.6174 217.938 65.207 218.348 65.207 218.854C65.207 219.36 65.6174 219.771 66.1235 219.771Z" fill="#FFBF66"/>
<path d="M41.5806 204.153C42.0867 204.153 42.4971 203.743 42.4971 203.237C42.4971 202.731 42.0867 202.32 41.5806 202.32C41.0744 202.32 40.6641 202.731 40.6641 203.237C40.6641 203.743 41.0744 204.153 41.5806 204.153Z" fill="#FFBF66"/>
<path d="M45.256 236.725C45.1964 236.725 45.1397 236.691 45.117 236.632C45.0857 236.555 45.1198 236.464 45.1992 236.433C55.0312 232.299 67.6013 222.461 67.729 222.362C67.7943 222.311 67.8907 222.322 67.9418 222.387C67.9929 222.453 67.9815 222.549 67.9163 222.6C67.7914 222.7 55.1872 232.566 45.3184 236.714C45.2986 236.722 45.2787 236.725 45.2588 236.725H45.256ZM111.373 214.922C111.313 214.922 111.253 214.885 111.231 214.826L104.026 196.277C103.995 196.197 104.035 196.109 104.114 196.081C104.191 196.05 104.282 196.089 104.31 196.169L111.514 214.718C111.546 214.797 111.506 214.885 111.426 214.913C111.409 214.919 111.39 214.925 111.373 214.925V214.922Z" fill="black"/>
<path d="M167.907 324.344H108.033C103.944 324.344 100.931 320.525 101.884 316.555L103.068 311.615C108.774 319.279 145.797 317.982 152.037 314.583C155.976 312.438 154.497 308.655 152.602 305.895C154.27 306.397 156.117 306.922 158.143 307.506C165.949 309.756 170.067 313.079 172.212 316.18C174.601 319.631 172.104 324.344 167.904 324.344H167.907Z" fill="#D5C028"/>
<path d="M107.832 267.512C107.832 267.512 107.812 267.512 107.804 267.512C107.722 267.495 107.668 267.416 107.682 267.333L113.178 238.657C113.195 238.575 113.272 238.521 113.357 238.538C113.439 238.555 113.493 238.635 113.479 238.717L107.983 267.393C107.969 267.467 107.906 267.515 107.832 267.515V267.512Z" fill="black"/>
<path d="M109.827 256.76C109.759 256.76 109.696 256.714 109.679 256.643C108.575 252.103 108.013 247.433 108.008 242.759C108.008 242.674 108.076 242.606 108.161 242.606C108.246 242.606 108.314 242.674 108.314 242.759C108.317 247.407 108.879 252.055 109.977 256.572C109.997 256.655 109.946 256.737 109.866 256.757C109.855 256.76 109.844 256.762 109.829 256.762L109.827 256.76ZM153.626 266.538C153.626 266.538 153.621 266.538 153.618 266.538C153.533 266.532 153.47 266.461 153.476 266.376L155.675 230.501C155.681 230.419 155.752 230.357 155.837 230.359C155.922 230.365 155.984 230.436 155.979 230.521L153.78 266.396C153.774 266.475 153.709 266.538 153.629 266.538H153.626Z" fill="black"/>
<path d="M47.7453 284.444L44.7375 294.384L35.9356 323.48C35.6746 324.342 34.8715 324.927 33.9692 324.91L32.3745 324.881C31.0466 324.856 30.1045 323.579 30.4763 322.305L39.0654 292.84L41.988 282.812L47.7453 284.444Z" fill="#D8CBB8"/>
<path d="M47.7454 284.444L41.9881 282.812L38.5859 294.449L44.0822 296.523L47.7454 284.444Z" fill="black"/>
<path d="M109.046 281.589C100.258 285.582 91.0445 288.788 81.3999 291.208C38.1223 302.059 -3.17751 267.232 0.369368 222.791C0.962405 215.356 3.78288 189.757 21.0037 185.117C15.8735 191.95 18.4386 219.772 25.2769 231.363C31.5053 241.978 39.9184 244.041 49.0495 241.144C56.898 238.652 64.8402 236.482 72.9214 234.759C86.0732 231.959 98.8817 240.985 100.474 254.327C100.806 257.13 100.959 260.092 100.93 263.211L108.733 261.789L105.689 277.549C105.28 279.657 106.909 281.601 109.046 281.589Z" fill="#FFF2E1"/>
<path d="M65.3521 293.369C60.1737 293.369 55.018 292.742 49.9133 291.485C40.1636 289.084 30.9191 284.354 23.1784 277.811C15.4518 271.279 9.2661 262.971 5.2936 253.786C1.06288 244.005 -0.645294 233.574 0.217306 222.775C0.807507 215.363 2.22342 208.474 4.30898 202.85C7.96936 192.975 13.5734 186.96 20.9651 184.968L21.3936 184.852L21.1268 185.206C18.7746 188.339 17.8864 196.474 18.8058 206.439C19.728 216.422 22.259 225.941 25.4115 231.284C28.3653 236.318 31.9718 239.647 36.1315 241.176C39.9139 242.569 44.2468 242.507 49.0081 240.997C57.3759 238.341 65.1876 236.253 72.8942 234.61C79.2502 233.256 85.924 234.647 91.2074 238.424C93.7697 240.257 95.8893 242.541 97.5067 245.211C99.1893 247.989 100.239 251.05 100.628 254.308C100.954 257.052 101.107 259.986 101.088 263.025L108.928 261.597L108.885 261.816L105.84 277.575C105.656 278.532 105.906 279.511 106.53 280.26C107.151 281.006 108.059 281.434 109.03 281.434H109.759L109.109 281.727C100.344 285.708 91.0343 288.948 81.4379 291.354C76.0807 292.696 70.7065 293.369 65.355 293.369H65.3521ZM20.6331 185.377C13.545 187.451 8.15096 193.361 4.59273 202.955C2.51852 208.553 1.10828 215.414 0.520919 222.8C-0.336006 233.549 1.36366 243.931 5.57451 253.664C9.52998 262.803 15.6874 271.072 23.377 277.575C31.0808 284.09 40.2828 288.798 49.9871 291.187C60.3156 293.729 70.8711 293.687 81.3613 291.056C90.7421 288.704 99.8505 285.554 108.442 281.69C107.605 281.551 106.845 281.117 106.292 280.453C105.611 279.633 105.335 278.56 105.54 277.516L108.542 261.975L100.775 263.391V263.206C100.807 260.113 100.653 257.131 100.321 254.342C99.9384 251.127 98.9027 248.108 97.2428 245.367C95.6481 242.731 93.554 240.478 91.0258 238.67C85.8133 234.942 79.2275 233.571 72.9538 234.908C65.2585 236.548 57.4525 238.636 49.0961 241.289C46.5849 242.087 44.2014 242.484 41.9513 242.484C35.0902 242.484 29.4578 238.79 25.1448 231.44C21.9724 226.061 19.4243 216.493 18.4993 206.47C18.0623 201.729 18.0255 197.271 18.3915 193.583C18.7604 189.897 19.5322 187.076 20.6331 185.382V185.377Z" fill="black"/>
<path d="M60.2467 153.974C61.2653 153.974 62.0911 153.148 62.0911 152.13C62.0911 151.111 61.2653 150.285 60.2467 150.285C59.2281 150.285 58.4023 151.111 58.4023 152.13C58.4023 153.148 59.2281 153.974 60.2467 153.974Z" fill="white"/>
<path d="M71.3989 139.311C70.3206 138.636 69.0807 138.213 67.7726 138.082C67.5314 138.06 67.2902 138.046 67.0547 138.043C67.2306 136.542 67.8549 133.23 69.8525 133.991C71.8302 134.743 71.606 137.904 71.3989 139.311Z" fill="black"/>
<path d="M73.5949 135.209C71.3164 133.907 70.3375 132.93 68.4931 133.583C67.3212 133.997 67.1566 135.589 67.1907 136.699C64.5319 135.632 60.7609 136.75 59.1662 139.142C58.315 140.192 55.4491 144.056 56.8764 145.191C57.4779 145.671 58.576 145.645 59.2712 146.009C60.4459 146.621 60.9312 147.72 61.5384 148.801C61.8136 148.247 62.523 144.817 61.6462 144.479C64.3901 145.135 63.8793 142.737 64.2595 141.071C64.6908 139.184 67.3553 137.757 69.2535 138.359C68.8194 137.697 68.2406 137.209 67.5737 136.872C67.9455 135.723 68.6577 133.975 69.472 134.346C70.6666 134.888 68.2633 140.095 70.9504 142.535C73.5382 144.885 74.4916 142.291 76.4211 146.928C76.9233 148.134 75.8791 136.514 73.5978 135.215L73.5949 135.209Z" fill="#FFBF66"/>
<path d="M76.3012 144.864L75.9862 144.844C76.1395 142.483 75.7933 140.063 74.9931 137.838L75.2882 137.73C76.1054 139.995 76.4544 142.461 76.3012 144.864ZM66.0351 178.063C60.9702 178.063 56.7196 175.73 53.8992 173.605C50.3693 170.946 48.2582 168.029 48.2355 168.001C48.1873 167.933 48.2014 167.839 48.2695 167.788C48.3376 167.74 48.4341 167.754 48.4824 167.822C48.5022 167.851 50.5935 170.736 54.0893 173.367C57.3042 175.787 62.4031 178.483 68.4328 177.58C68.5151 177.569 68.5946 177.626 68.6059 177.708C68.6173 177.79 68.5605 177.87 68.4782 177.881C67.6468 178.006 66.8296 178.063 66.0351 178.063Z" fill="black"/>
<path d="M174.543 274.465H121.246V277.524H174.543V274.465Z" fill="#D5C028"/>
<path d="M174.646 277.623H121.145V274.359H174.646V277.623ZM121.349 277.419H174.443V274.562H121.349V277.419Z" fill="black"/>
<path d="M211.637 274.465H175.867V277.524H211.637V274.465Z" fill="#FFD397"/>
<path d="M211.736 277.623H175.762V274.359H211.736V277.623ZM175.966 277.419H211.532V274.562H175.966V277.419Z" fill="black"/>
<path d="M174.572 241.867H123.242V274.462H174.572V241.867Z" fill="#FFD397"/>
<path d="M174.675 274.565H123.141V241.766H174.675V274.565ZM123.345 274.36H174.471V241.97H123.345V274.36Z" fill="black"/>
<path d="M215.538 241.867H174.574V274.462H215.538V241.867Z" fill="#FAE6C9"/>
<path d="M215.637 274.565H174.469V241.766H215.637V274.565ZM174.673 274.36H215.434V241.97H174.673V274.36Z" fill="black"/>
<path d="M174.579 240.305H172.189C171.09 240.305 170.199 241.196 170.199 242.295V322.238C170.199 323.337 171.09 324.228 172.189 324.228H174.579C175.678 324.228 176.568 323.337 176.568 322.238V242.295C176.568 241.196 175.678 240.305 174.579 240.305Z" fill="#363636"/>
<path d="M121.246 240.305H127.615V322.236C127.615 323.334 126.724 324.226 125.625 324.226H123.236C122.138 324.226 121.246 323.334 121.246 322.236V240.305Z" fill="#363636"/>
<path d="M174.582 324.329H172.193C171.039 324.329 170.101 323.391 170.101 322.237V242.295C170.101 241.141 171.039 240.203 172.193 240.203H174.582C175.736 240.203 176.674 241.141 176.674 242.295V322.237C176.674 323.391 175.736 324.329 174.582 324.329ZM172.193 240.408C171.152 240.408 170.305 241.255 170.305 242.295V322.237C170.305 323.277 171.152 324.124 172.193 324.124H174.582C175.622 324.124 176.47 323.277 176.47 322.237V242.295C176.47 241.255 175.622 240.408 174.582 240.408H172.193ZM125.626 324.329H123.237C122.083 324.329 121.145 323.391 121.145 322.237V240.203H127.718V322.237C127.718 323.391 126.78 324.329 125.626 324.329ZM121.349 240.408V322.238C121.349 323.279 122.196 324.126 123.237 324.126H125.626C126.666 324.126 127.514 323.279 127.514 322.238V240.408H121.349Z" fill="black"/>
<path d="M217.098 237.246H118.371V243.428H217.098V237.246Z" fill="#363636"/>
<path d="M217.199 243.529H118.27V237.145H217.199V243.529ZM118.472 243.327H216.994V237.349H118.472V243.327Z" fill="black"/>
<path d="M209.168 240.305H215.537V322.236C215.537 323.334 214.645 324.226 213.547 324.226H211.158C210.06 324.226 209.168 323.334 209.168 322.236V240.305Z" fill="#D8CBB8"/>
<path d="M213.548 324.329H211.159C210.004 324.329 209.066 323.391 209.066 322.237V240.203H215.64V322.237C215.64 323.391 214.702 324.329 213.548 324.329ZM209.271 240.408V322.238C209.271 323.279 210.118 324.126 211.159 324.126H213.548C214.588 324.126 215.436 323.279 215.436 322.238V240.408H209.269H209.271Z" fill="black"/>
<path d="M217.097 237.246H177.508V243.428H217.097V237.246Z" fill="#D8CBB8"/>
<path d="M217.2 243.529H177.406V237.145H217.2V243.529ZM177.611 243.325H216.998V237.349H177.611V243.327V243.325Z" fill="black"/>
<path d="M152.73 248.113H142.834C141.955 248.113 141.242 248.826 141.242 249.706C141.242 250.585 141.955 251.298 142.834 251.298H152.73C153.609 251.298 154.322 250.585 154.322 249.706C154.322 248.826 153.609 248.113 152.73 248.113Z" fill="#363636"/>
<path d="M152.731 251.397H142.835C141.901 251.397 141.141 250.637 141.141 249.702C141.141 248.768 141.901 248.008 142.835 248.008H152.731C153.665 248.008 154.425 248.768 154.425 249.702C154.425 250.637 153.665 251.397 152.731 251.397ZM142.835 248.212C142.013 248.212 141.345 248.88 141.345 249.702C141.345 250.525 142.013 251.192 142.835 251.192H152.731C153.553 251.192 154.221 250.525 154.221 249.702C154.221 248.88 153.553 248.212 152.731 248.212H142.835Z" fill="black"/>
<path d="M147.066 237.019H173.8L182.648 211.301H155.913L147.066 237.019Z" fill="#9098E0"/>
<path d="M173.877 237.131H146.906L155.832 211.188H182.803L173.877 237.131ZM147.221 236.906H173.717L182.487 211.411H155.991L147.22 236.906H147.221Z" fill="black"/>
<path d="M193.464 237.099H173.801L182.815 211.223L193.464 237.099Z" fill="black"/>
<path d="M180.365 211.221H180.093C180.093 210.155 179.459 209.288 178.682 209.288C177.906 209.288 177.272 210.155 177.272 211.221H177C177 210.005 177.755 209.016 178.684 209.016C179.613 209.016 180.368 210.004 180.368 211.221H180.365Z" fill="black"/>
<path d="M178.158 211.221H177.886C177.886 210.155 177.252 209.288 176.475 209.288C175.698 209.288 175.065 210.155 175.065 211.221H174.793C174.793 210.005 175.548 209.016 176.477 209.016C177.406 209.016 178.159 210.004 178.159 211.221H178.158Z" fill="black"/>
<path d="M175.732 211.221H175.46C175.46 210.155 174.827 209.288 174.05 209.288C173.273 209.288 172.64 210.155 172.64 211.221H172.367C172.367 210.005 173.122 209.016 174.05 209.016C174.977 209.016 175.734 210.004 175.734 211.221H175.732Z" fill="black"/>
<path d="M173.084 211.221H172.811C172.811 210.155 172.178 209.288 171.401 209.288C170.624 209.288 169.991 210.155 169.991 211.221H169.719C169.719 210.005 170.474 209.016 171.401 209.016C172.329 209.016 173.085 210.004 173.085 211.221H173.084Z" fill="black"/>
<path d="M170.877 211.221H170.604C170.604 210.155 169.971 209.288 169.194 209.288C168.417 209.288 167.784 210.155 167.784 211.221H167.512C167.512 210.005 168.267 209.016 169.196 209.016C170.125 209.016 170.879 210.004 170.879 211.221H170.877Z" fill="black"/>
<path d="M168.67 211.221H168.397C168.397 210.155 167.764 209.288 166.987 209.288C166.21 209.288 165.577 210.155 165.577 211.221H165.305C165.305 210.005 166.06 209.016 166.989 209.016C167.918 209.016 168.671 210.004 168.671 211.221H168.67Z" fill="black"/>
<path d="M166.463 211.221H166.19C166.19 210.155 165.557 209.288 164.78 209.288C164.003 209.288 163.37 210.155 163.37 211.221H163.098C163.098 210.005 163.852 209.016 164.78 209.016C165.708 209.016 166.464 210.004 166.464 211.221H166.463Z" fill="black"/>
<path d="M164.256 211.221H163.983C163.983 210.155 163.35 209.288 162.573 209.288C161.796 209.288 161.163 210.155 161.163 211.221H160.891C160.891 210.005 161.645 209.016 162.574 209.016C163.504 209.016 164.258 210.004 164.258 211.221H164.256Z" fill="black"/>
<path d="M162.049 211.221H161.776C161.776 210.155 161.143 209.288 160.366 209.288C159.589 209.288 158.956 210.155 158.956 211.221H158.684C158.684 210.005 159.438 209.016 160.367 209.016C161.296 209.016 162.05 210.004 162.05 211.221H162.049Z" fill="black"/>
<path d="M172.988 219.58H177.723L179.251 214.871H174.516L172.988 219.58Z" fill="white"/>
<path d="M177.823 219.715H172.801L174.417 214.734H179.439L177.823 219.715ZM173.177 219.443H177.626L179.065 215.008H174.616L173.177 219.443Z" fill="black"/>
<path d="M167.035 219.58H171.77L173.298 214.871H168.563L167.035 219.58Z" fill="white"/>
<path d="M171.87 219.715H166.848L168.464 214.734H173.486L171.87 219.715ZM167.224 219.443H171.673L173.112 215.008H168.663L167.224 219.443Z" fill="black"/>
<path d="M161.082 219.58H165.818L167.345 214.871H162.61L161.082 219.58Z" fill="white"/>
<path d="M165.913 219.715H160.891L162.507 214.734H167.529L165.913 219.715ZM161.267 219.443H165.716L167.155 215.008H162.706L161.267 219.443Z" fill="black"/>
<path d="M155.125 219.58H159.86L161.388 214.871H156.651L155.125 219.58Z" fill="white"/>
<path d="M159.96 219.715H154.938L156.554 214.734H161.576L159.96 219.715ZM155.314 219.443H159.762L161.202 215.008H156.753L155.314 219.443Z" fill="black"/>
<path d="M170.641 226.513H175.376L176.902 221.805H172.167L170.641 226.513Z" fill="white"/>
<path d="M175.472 226.649H170.449L172.065 221.668H177.088L175.472 226.649ZM170.825 226.377H175.274L176.713 221.942H172.264L170.825 226.377Z" fill="black"/>
<path d="M164.688 226.513H169.423L170.95 221.805H166.215L164.688 226.513Z" fill="#F99100"/>
<path d="M169.519 226.649H164.496L166.112 221.668H171.135L169.519 226.649ZM164.872 226.377H169.321L170.76 221.942H166.311L164.872 226.377Z" fill="black"/>
<path d="M158.73 226.513H163.465L164.993 221.805H160.258L158.73 226.513Z" fill="white"/>
<path d="M163.566 226.649H158.543L160.159 221.668H165.182L163.566 226.649ZM158.919 226.377H163.368L164.807 221.942H160.358L158.919 226.377Z" fill="black"/>
<path d="M152.777 226.513H157.514L159.04 221.805H154.305L152.777 226.513Z" fill="white"/>
<path d="M157.612 226.649H152.59L154.206 221.668H159.229L157.612 226.649ZM152.966 226.377H157.415L158.854 221.942H154.405L152.966 226.377Z" fill="black"/>
<path d="M168.289 233.451H173.024L174.552 228.742H169.817L168.289 233.451Z" fill="white"/>
<path d="M173.124 233.583H168.102L169.718 228.602H174.74L173.124 233.583ZM168.478 233.31H172.926L174.366 228.875H169.917L168.478 233.31Z" fill="black"/>
<path d="M162.336 233.451H167.071L168.597 228.742H163.862L162.336 233.451Z" fill="white"/>
<path d="M167.171 233.583H162.148L163.765 228.602H168.787L167.171 233.583ZM162.524 233.31H166.973L168.412 228.875H163.964L162.524 233.31Z" fill="black"/>
<path d="M156.383 233.451H161.118L162.645 228.742H157.91L156.383 233.451Z" fill="white"/>
<path d="M161.218 233.583H156.195L157.811 228.602H162.834L161.218 233.583ZM156.571 233.31H161.02L162.459 228.875H158.011L156.571 233.31Z" fill="black"/>
<path d="M150.43 233.451H155.165L156.692 228.742H151.957L150.43 233.451Z" fill="white"/>
<path d="M155.261 233.583H150.238L151.854 228.602H156.877L155.261 233.583ZM150.614 233.31H155.063L156.502 228.875H152.053L150.614 233.31Z" fill="black"/>
</g>
<defs>
<clipPath id="clip0_1001_1440">
<rect width="400" height="324.91" fill="white"/>
</clipPath>
</defs>
</svg>
