<svg width="149" height="152" viewBox="0 0 149 152" fill="none" xmlns="http://www.w3.org/2000/svg">
<path d="M148.983 54.8062C144.08 37.9208 133.473 23.258 118.97 13.3163C104.468 3.37451 86.9668 -1.23114 69.4492 0.284077C51.9316 1.79929 35.4813 9.34162 22.9013 21.6259C10.3212 33.9103 2.38977 50.1765 0.458361 67.6531C-1.47305 85.1297 2.71506 102.735 12.3091 117.47C21.9031 132.205 36.3095 143.157 53.0735 148.461C69.8375 153.765 87.9219 153.092 104.245 146.557C120.569 140.022 134.121 128.029 142.594 112.622L75.9985 76.0014L148.983 54.8062Z" fill="url(#paint0_linear_2505_10606)"/>
<defs>
<linearGradient id="paint0_linear_2505_10606" x1="71.8847" y1="0.112777" x2="80.1122" y2="151.89" gradientUnits="userSpaceOnUse">
<stop stop-color="#FEE66B"/>
<stop offset="1" stop-color="#FFA901"/>
</linearGradient>
</defs>
</svg>
