<svg width="30" height="33" viewBox="0 0 30 33" fill="none" xmlns="http://www.w3.org/2000/svg">
<path d="M17.0724 0.495984C13.9209 -0.307514 10.5987 -0.132641 7.54906 0.997544C4.49963 2.12776 1.86667 4.1595 4.37223e-05 6.8226L13.1147 16.0155L2.37098 27.8929C4.7828 30.0745 7.8016 31.4703 11.026 31.8945C14.2504 32.3186 17.5279 31.7512 20.4219 30.2675C23.316 28.7837 25.6906 26.454 27.2283 23.5882C28.766 20.7225 29.3939 17.4563 29.0303 14.2244C28.6666 10.9926 27.3281 7.94778 25.192 5.49545C23.0559 3.04323 20.2237 1.29954 17.0724 0.495984ZM9.56104 7.34746C10.1168 7.30592 10.6008 7.7233 10.6424 8.27908C10.6838 8.83468 10.2674 9.3187 9.71177 9.36038C9.15608 9.40199 8.67134 8.98541 8.62949 8.4298C8.58787 7.87398 9.00521 7.38908 9.56104 7.34746Z" fill="url(#paint0_linear_2505_10669)"/>
<defs>
<linearGradient id="paint0_linear_2505_10669" x1="13.1555" y1="15.9681" x2="29.2307" y2="16.7445" gradientUnits="userSpaceOnUse">
<stop stop-color="#DCA05C"/>
<stop offset="1" stop-color="#E69500"/>
</linearGradient>
</defs>
</svg>
